<svg class="country" xmlns="http://www.w3.org/2000/svg" version="1.2" baseProfile="tiny" width="800" height="1207" viewBox="0 0 800 1207" stroke-linecap="round" stroke-linejoin="round">
<g id="MH">
<path d="M 334.37 1084.69 334.4 1084.65 335.1 1084.94 336.05 1085.15 336.74 1084.92 337.28 1083.93 337.51 1082.91 337.47 1081.9 337.14 1080.92 338.03 1082.4 337.55 1084.41 336.16 1085.63 334.37 1084.69 Z M 762.91 1024.96 763.37 1025.44 763.83 1026.1 765.1 1027.16 765.33 1027.65 764.54 1027.64 763.33 1027.63 762.7 1027.13 762.56 1026.24 762.91 1024.96 Z M 784.79 906.25 785.75 905.5 786.24 904.71 786.16 903.91 785.47 903.11 787.07 903.93 786.47 905.58 784.71 907.03 782.72 907.2 783.18 906.84 783.68 906.61 784.79 906.25 Z M 403.47 1206.45 409.35 1204.47 410.44 1203.51 413.25 1199.9 412.12 1202.79 410.1 1205.02 407.19 1206.34 403.47 1206.45 Z M 510.5 1060.73 512.84 1059.42 513.71 1058.66 514.42 1057.59 515.15 1056.06 516.21 1052.47 516.98 1046.91 518.21 1043.85 520.63 1041.69 523.49 1039.91 525.67 1037.88 527.55 1035.5 526 1039.84 519.35 1044.34 517.85 1048.97 517.29 1052.51 515.78 1057.38 513.44 1060.98 510.5 1060.73 Z M 799 1030.62 796.46 1030.37 793.6 1030.91 791.03 1030.89 789.38 1029 789.63 1029.14 790.37 1029.43 791.51 1029.68 795.02 1029.81 799 1030.62 Z M 766.7 921.35 763.58 920.94 758.66 917.24 755.31 916.47 749.82 917.3 747.3 916.2 745.49 912.4 746.66 913.96 747.93 915.08 749.49 915.65 757.17 915.3 758.75 915.65 764.02 919.85 766.7 921.35 Z M 723.76 904.93 720.6 906.77 711.92 908.05 708.34 909.96 705.03 909.96 701.12 909.39 684.41 901.89 681.43 899.54 683.16 897.68 683.19 898.83 683.39 899.57 683.97 900.93 703.99 909 705.3 908.98 708.36 908.4 710.9 907.5 723.76 904.93 Z M 412.04 881.32 420.59 881.32 418.84 883.17 416.02 883.05 410.65 881.77 404.71 880.67 402.25 879.78 402.74 878.07 404.49 879.67 407.13 880.43 409.73 881.19 412.04 881.32 Z M 390.64 869.85 389.11 868.82 388.08 866.73 387.9 864.4 388.94 862.67 389.4 864.26 390.13 868.22 390.64 869.85 Z M 192.81 418.13 191.64 420.27 189.4 421.5 186.81 421.44 184.73 419.78 188.99 419.41 192.81 418.13 Z M 454.22 1080.08 454.46 1078.76 454.95 1078.97 454.22 1080.08 Z M 770.91 911.47 771.17 911.14 771.34 910.85 771.57 910.65 771.94 910.56 771.17 912.1 770.17 913.47 768.97 914.67 767.59 915.7 768.3 914.58 770.91 911.47 Z M 436.61 849.51 436.85 848.8 436.91 848.34 436.2 847.48 434.93 847 433.41 846.92 434.07 846.71 434.98 846.58 435.91 846.66 436.61 847.04 437.04 848.07 437.1 848.41 437.04 849.03 436.97 849.92 436.61 849.51 Z M 251.66 760.77 252.37 762.03 251.42 761.61 251.66 760.77 Z M 290.68 712.12 290.57 711.43 290.52 710.85 290.85 710.32 291.7 709.82 291.85 710.55 291.67 711.09 290.68 712.12 Z M 659.68 691.4 658.85 692.75 658.18 692.55 658.12 692.52 658.04 692.49 657.98 692.44 657.95 692.38 658.44 691.3 658.83 691.04 659.48 690.96 659.68 691.4 Z M 587.36 625.27 587.19 623.24 587.79 623.28 588.17 624.31 587.36 625.27 Z M 662.39 526.26 662.37 524.81 662.85 524.74 662.87 526.2 662.39 526.26 Z M 31.51 362.53 31.82 362.62 32.3 362.86 32.74 363.35 33.11 364.21 31.51 362.53 Z M 1 355.04 1 353.51 1.54 353.21 1.79 353.81 1 355.04 Z M 441.95 1.04 442.3 1 441.55 1.94 440.32 3.13 439.18 3.89 440.48 2.4 441.95 1.04 Z" fill-rule="evenodd"/>
</g>
</svg>
