<svg class="country" xmlns="http://www.w3.org/2000/svg" version="1.0" width="1016.3447" height="1149.8628" viewBox="0 0 1016.3447 1149.8628">
  <g fill="#000000" stroke="none">
    <path d="M 271.27246,381.6792 C 271.27246,381.6792 275.39746,378.6792 276.89746,378.3042 C 278.39746,377.9292 283.64746,376.0542 283.64746,376.0542 C 283.64746,376.0542 287.02246,374.1792 288.89746,374.1792 C 290.77246,374.1792 294.52246,376.4292 295.64746,378.3042 C 296.77246,380.1792 302.77246,383.5542 302.77246,383.5542 C 302.77246,383.5542 306.89746,385.0542 307.64746,383.5542 C 308.39746,382.0542 310.27246,380.9292 312.14746,380.9292 C 314.02246,380.9292 314.39746,379.0542 314.39746,377.5542 C 314.39746,376.0542 315.14746,374.1792 316.64746,372.3042 C 318.14746,370.4292 321.14746,369.3042 321.14746,369.3042 C 321.14746,369.3042 325.27246,367.4292 325.64746,364.8042 C 326.02246,362.1792 330.14746,360.3042 332.39746,359.9292 C 334.64746,359.5542 332.39746,358.4292 338.39746,359.1792 C 344.39746,359.9292 345.14746,357.6792 345.52246,355.8042 C 345.89746,353.9292 345.52246,352.0542 349.27246,352.4292 C 353.02246,352.8042 354.89746,352.8042 354.89746,350.5542 C 354.89746,348.3042 358.27246,347.1792 352.27246,345.3042 C 346.27246,343.4292 346.64746,344.9292 346.27246,341.9292 C 345.89746,338.9292 346.27246,339.3042 342.14746,338.9292 C 338.02246,338.5542 340.27246,336.3042 339.89746,334.0542 C 339.52246,331.8042 338.39746,330.6792 337.64746,329.1792 C 336.89746,327.67944 334.64746,327.67944 334.64746,325.42944 C 334.64746,323.17944 334.27246,322.05444 332.02246,322.05444 C 329.77246,322.05444 329.02246,322.05444 329.02246,319.80444 C 329.02246,317.55444 329.39746,315.67944 331.64746,315.67944 C 333.89746,315.67944 335.02246,313.80444 334.64746,311.55444 C 334.27246,309.30444 334.27246,304.42944 334.27246,304.42944 L 337.27246,300.67944 C 337.27246,300.67944 346.27246,292.80444 347.02246,291.30444 C 347.77246,289.80444 350.77246,288.67944 352.27246,291.67944 C 353.77246,294.67944 354.52246,295.42944 355.64746,296.92944 C 356.77246,298.42944 360.14746,297.30444 360.89746,295.80444 C 361.64746,294.30444 362.01269,288.76538 363.96387,285.83838 C 365.91553,282.91162 367.37891,281.44776 367.8667,279.00879 C 368.35449,276.56982 369.33008,274.61865 371.76904,274.61865 C 374.20849,274.61865 375.67187,271.20361 375.67187,269.25244 C 375.67187,267.30127 376.64746,265.34961 379.57421,264.86206 C 382.50146,264.37427 383.96483,262.4231 384.94042,265.34985 C 385.91601,268.27685 386.89159,268.27685 388.84276,269.25244 C 390.79442,270.22803 393.72118,271.6914 395.18456,270.22803 C 396.64794,268.76466 397.43017,266.32544 399.57518,267.78907 C 401.71971,269.25245 403.18309,267.78907 403.67088,264.86207 C 404.15916,261.93507 404.64647,258.03248 404.64647,258.03248 C 404.64647,258.03248 405.13475,256.08106 408.5493,256.08106 C 411.96385,256.08106 409.52489,253.6421 411.47606,252.17872 C 413.42772,250.71534 413.42723,249.25196 415.86668,250.22755 C 418.30564,251.20314 422.20848,249.05836 420.25682,246.61915 C 418.30565,244.18019 413.91551,240.27735 416.35448,237.3506 C 418.79345,234.42385 419.76903,229.54542 417.33007,229.05763 C 414.89111,228.56984 411.47607,229.54542 410.98827,226.61867 C 410.50048,223.69142 409.52489,221.74025 412.45165,221.25246 C 415.3789,220.76467 420.25683,220.76467 421.72069,219.30129 C 423.18407,217.83767 428.062,216.86208 428.062,212.47146 C 428.062,208.08108 429.52587,207.59353 430.01366,205.15432 C 430.50145,202.71536 430.50145,197.64358 428.54979,195.20437 C 426.59862,192.76541 423.67186,189.35061 423.18407,187.88723 C 422.69628,186.42385 420.74511,183.9844 417.81786,183.00881 C 414.8911,182.03322 412.45165,181.54543 412.45165,179.10647 C 412.45165,176.66726 414.40331,179.59426 414.40331,173.25247 C 414.40331,166.91068 410.50048,165.93509 410.50048,165.93509 L 404.64648,162.0325 C 404.64648,162.0325 394.23486,158.99173 391.43701,158.99173 C 388.63867,158.99173 385.44092,155.82864 388.63867,153.79544 C 391.83642,151.76248 392.63623,148.16507 391.43701,145.36722 C 390.23779,142.56912 389.43847,140.57034 385.0415,139.37137 C 380.64453,138.1724 379.44531,136.97318 381.44384,134.17508 C 383.44237,131.37698 383.84228,129.37845 386.24072,131.37698 C 388.63867,133.37576 392.63623,134.17483 395.83349,132.5762 C 399.03124,130.97757 400.26513,129.77835 401.86376,131.37698 C 403.46288,132.97586 405.46142,134.57473 407.85937,132.17654 C 410.25781,129.77835 414.65429,129.37869 416.65332,130.57766 C 418.65186,131.77688 423.44824,131.37722 425.04687,130.57766 C 426.64599,129.77834 429.84375,126.98025 429.84375,125.38137 C 429.84375,123.78249 431.84229,120.9844 433.84082,119.78542 C 435.83935,118.58644 438.23779,114.58913 440.23633,114.58913 C 442.23487,114.58913 443.03418,112.19094 443.03418,110.59206 C 443.03418,108.99318 444.6333,105.82985 445.03272,104.59621 C 445.43262,103.36281 449.46387,101.72951 452.26221,104.16213 C 455.06006,106.59475 458.65723,107.39431 458.65723,107.39431 C 458.65723,107.39431 462.6543,108.19387 464.65332,107.39431 C 466.65186,106.59475 469.44971,105.79543 472.24756,107.79397 C 475.0459,109.79251 479.04297,109.79251 479.04297,109.79251 C 479.04297,109.79251 479.84229,106.62942 479.84229,104.99612 C 479.84229,103.36282 480.64161,100.56497 479.04297,99.36575 C 477.44385,98.16653 475.44531,96.5679 478.64307,94.16946 C 481.84083,91.77102 481.84082,92.17092 485.03858,92.17092 C 488.23634,92.17092 490.23487,92.57033 492.63331,92.57033 C 495.03126,92.57033 499.063,94.96877 499.063,97.36721 C 499.063,99.7654 500.66163,101.36428 502.66017,102.56325 C 504.65919,103.76247 507.05714,104.99611 506.25783,106.99465 C 505.45852,108.99319 505.45851,110.59206 507.85646,110.1924 C 510.2549,109.7925 511.05421,111.39137 511.05421,113.39015 C 511.05421,115.38844 511.85353,116.58766 514.25196,117.38722 C 516.6504,118.18654 517.84962,119.78541 517.84962,121.78395 C 517.84962,123.78249 517.44972,124.9817 518.24903,126.98024 C 519.04834,128.97878 521.44678,132.17653 521.44678,132.17653 C 521.44678,132.17653 525.84375,137.77248 520.24756,134.97463 C 514.65186,132.17653 513.45264,130.97732 511.4541,131.37697 C 509.45556,131.77687 508.25635,132.97585 508.25635,132.97585 C 508.25635,132.97585 505.4585,133.77541 503.45996,133.77541 C 501.46142,133.77541 499.46289,138.17238 502.66016,138.97145 C 505.85791,139.77101 507.05713,140.57033 507.05713,143.36867 C 507.05713,146.16652 505.8584,145.36721 504.25928,147.36574 C 502.66016,149.36427 501.49561,148.16506 498.66309,148.16506 C 495.83057,148.16506 495.03125,150.59768 495.03125,152.99611 C 495.03125,155.3943 496.26514,154.99465 497.46387,156.99318 C 498.66309,158.99172 500.66162,159.39162 502.66016,157.39308 C 504.65918,155.3943 506.25782,154.19533 507.45704,157.79249 C 508.65626,161.39015 510.25489,161.39015 512.65333,161.39015 C 515.05177,161.39015 515.8506,161.39015 517.84962,160.19093 C 519.84816,158.99171 522.2461,160.19093 522.64601,163.38844 C 523.04591,166.58644 525.04445,166.98585 527.04298,168.18507 C 529.04151,169.38429 530.24073,170.18385 530.64015,172.18214 C 531.04005,174.18068 532.23927,174.98024 534.23781,173.78126 C 536.23635,172.58204 539.4341,171.78248 540.63332,173.38136 C 541.83205,174.98024 543.83059,178.17799 543.83059,178.17799 L 544.23049,182.17506 L 551.8594,184.97316 C 551.8594,184.97316 552.6592,186.97145 552.6592,188.57033 C 552.6592,190.16945 553.85793,190.96877 555.85647,190.56911 C 557.85549,190.16945 561.45266,190.56911 561.45266,190.56911 C 561.45266,190.56911 564.25051,189.36989 564.25051,186.97145 C 564.25051,184.57326 565.44973,183.77394 567.44826,183.77394 C 569.44679,183.77394 573.84377,185.37306 575.04299,182.97462 C 576.24221,180.57618 579.83938,179.77687 582.63772,180.97584 C 585.43557,182.17506 592.66458,185.37306 592.66458,185.37306 C 592.66458,185.37306 591.86526,185.77247 594.2637,189.76954 C 596.66165,193.76685 601.05862,193.76685 601.05862,193.76685 C 601.05862,193.76685 601.45852,197.32959 602.25784,198.96289 C 603.05716,200.59619 606.65432,201.36133 608.65335,199.76245 C 610.65189,198.16357 613.44974,196.16504 615.84817,196.16504 C 618.24612,196.16504 619.84524,196.16504 619.84524,194.56616 C 619.84524,192.96728 617.4468,191.76831 617.4468,189.37012 C 617.4468,186.97144 619.84524,186.97168 620.24514,184.57324 C 620.64455,182.17505 623.04299,184.57324 624.64162,185.77246 C 626.24025,186.97143 628.23928,188.97021 628.23928,190.56909 C 628.23928,192.16797 631.43655,197.76391 633.43557,198.56323 C 635.43411,199.36279 640.66457,199.76245 642.26369,197.76416 C 643.86232,195.76538 647.85939,194.93164 647.45998,199.76245 C 647.06008,204.59326 646.26076,204.99316 649.05861,206.59204 C 651.85646,208.19092 652.25636,213.78662 649.85793,215.38574 C 647.45998,216.98437 646.66018,217.38428 646.66018,220.18213 C 646.66018,222.98023 645.86135,226.17774 647.8594,227.77686 C 649.85794,229.37574 651.05715,230.57471 651.05715,232.17383 C 651.05715,233.77246 653.45559,240.96729 653.45559,240.96729 C 653.45559,240.96729 654.65481,248.19678 654.25491,249.79541 C 653.8555,251.39429 653.05569,254.19238 656.65335,253.79248 C 660.25052,253.39307 661.04983,253.39307 661.04983,256.59033 C 661.04983,259.78833 662.24905,260.9873 660.25051,262.18652 C 658.25197,263.38574 657.05276,267.38281 659.05178,268.18213 C 661.04983,268.98169 662.64895,270.18067 663.04885,271.77979 C 663.44826,273.37842 666.64602,276.17652 668.64455,274.57764 C 670.64308,272.97876 671.04299,272.17945 672.64162,271.77979 C 674.24025,271.37989 675.43947,270.18091 673.84084,268.18213 C 672.24221,266.18359 671.8423,264.18506 673.44143,262.98584 C 675.04006,261.78687 675.83938,257.78955 675.83938,257.78955 C 675.83938,257.78955 678.23782,254.19214 681.03567,257.78955 C 683.83352,261.38721 684.23342,260.18799 686.23196,260.18799 C 688.2305,260.18799 689.06448,262.18653 689.06448,264.18506 C 689.06448,266.18359 693.06155,265.78418 693.06155,268.98169 C 693.06155,272.17944 693.86087,279.77393 693.86087,279.77393 C 693.86087,279.77393 693.86136,284.1709 696.25931,285.76954 C 698.65726,287.36866 698.25785,287.76808 697.05863,289.76661 C 695.85941,291.76539 696.25931,294.99757 696.25931,296.5962 C 696.25931,298.19532 697.05863,298.99464 695.06009,300.59327 C 693.06155,302.19239 692.26224,304.19093 693.46097,306.58912 C 694.66019,308.98731 694.26077,310.58619 697.45853,313.38429 C 700.65628,316.18214 700.25638,317.38136 700.25638,319.3799 C 700.25638,321.37844 703.45413,324.17653 703.45413,326.17507 C 703.45413,328.17385 705.85257,330.5718 707.8511,330.97146 C 709.84964,331.37136 712.24758,334.96877 712.24758,336.96731 C 712.24758,338.96585 712.64748,344.19656 712.64748,344.19656 C 712.64748,344.19656 712.24807,345.39578 714.64602,345.39578 C 717.04397,345.39578 718.64309,348.22806 719.44241,344.99612 C 720.24221,341.76419 722.64016,341.36428 724.23929,340.56497 C 725.83792,339.76541 729.03568,338.16653 730.6348,339.36575 C 732.23343,340.56497 734.1973,340.56497 735.8306,340.56497 C 737.4639,340.56497 745.05863,340.96438 745.05863,340.96438 C 745.05863,340.96438 747.05717,340.5303 748.25638,343.76248 C 749.45559,346.99466 753.05277,350.59207 751.05423,352.19095 C 749.05569,353.78958 749.05569,356.98734 751.45413,356.98734 C 753.85257,356.98734 756.25052,356.98734 756.25052,358.98588 C 756.25052,360.98442 756.65042,362.58354 758.64896,361.38432 C 760.6475,360.1851 761.84671,359.78544 762.64603,361.38432 C 763.44535,362.98295 765.04398,362.9832 767.043,364.18217 C 769.04154,365.38139 769.84085,364.58207 771.04007,362.98295 C 772.23929,361.38432 777.03568,359.78544 777.03568,359.78544 C 777.03568,359.78544 783.46586,358.18656 785.8638,358.98588 C 788.26224,359.78544 791.45999,361.38432 791.45999,361.38432 C 791.45999,361.38432 793.05862,365.38139 792.25931,367.77983 C 791.45999,370.17802 790.66019,369.77837 791.45999,373.37578 C 792.25931,376.97319 790.66019,377.37309 789.06155,376.97319 C 787.46291,376.57329 785.8638,376.57329 785.8638,379.77104 C 785.8638,382.96879 784.2305,383.76811 784.2305,386.56621 C 784.2305,389.36431 784.2305,388.9644 782.63187,390.16362 C 781.03275,391.36284 780.59867,393.3958 783.03128,393.79546 C 785.4639,394.19536 784.6304,396.99321 784.6304,398.59209 C 784.6304,400.19097 784.2305,403.78813 784.2305,403.78813 C 784.2305,403.78813 784.6304,405.78715 781.83206,405.78715 C 779.03421,405.78715 776.63577,405.38725 776.23636,407.38578 C 775.83646,409.38432 772.6387,412.58207 775.43704,414.5806 C 778.23489,416.57914 777.43558,417.77835 775.83645,418.57767 C 774.23782,419.37699 773.0386,423.37455 776.23635,424.57328 C 779.4341,425.7725 779.0342,426.97172 777.03567,428.57035 C 775.03713,430.16947 771.04006,431.36869 771.04006,433.76664 C 771.04006,436.16508 770.24074,436.16508 767.84231,436.56498 C 765.44387,436.96439 764.24514,440.19633 767.04299,444.19389 C 769.84084,448.19096 770.64016,447.39164 772.63869,447.39164 C 774.63771,447.39164 774.63771,444.19389 774.63771,444.19389 C 774.63771,444.19389 781.39796,444.5933 783.43117,444.5933 C 785.46388,444.5933 788.26222,444.5933 789.86086,443.39457 C 791.45998,442.19535 795.85647,440.19633 795.85647,443.79398 C 795.85647,447.39163 796.65627,446.99173 798.65481,448.59037 C 800.65335,450.18949 801.05276,448.99027 802.65188,451.38871 C 804.25051,453.78715 804.65042,451.78812 805.84963,448.99027 C 807.04884,446.19242 809.4468,443.39457 811.44533,446.59183 C 813.44387,449.78958 813.44387,448.99027 815.8423,448.99027 C 818.24025,448.99027 819.04005,450.18949 819.04005,452.18802 C 819.04005,454.18655 821.438,454.18656 824.23634,453.78714 C 827.03419,453.38724 827.43409,455.38577 828.63331,457.38431 C 829.83204,459.38285 830.19727,458.98294 831.83058,458.98294 C 833.46389,458.98294 835.063,458.98294 836.26222,457.38431 C 837.46095,455.78519 839.06007,453.78665 840.65919,456.18509 C 842.25782,458.58353 845.45558,458.18363 846.25489,455.38577 C 847.0542,452.58791 850.65186,450.18948 852.6504,453.38723 C 854.64894,456.58498 856.24806,456.58498 858.2461,456.9844 C 860.24512,457.3843 863.04298,457.3843 864.24219,459.38284 C 865.4414,461.38138 869.43799,464.57913 866.64014,466.97757 C 863.84229,469.37601 860.64453,472.57327 863.04297,473.37308 C 865.44141,474.17191 867.04004,474.97171 868.63867,476.97025 C 870.23779,478.96879 875.43408,479.7681 877.83203,480.168 C 880.23047,480.56741 882.26367,480.96732 885.06152,478.56937 C 887.85937,476.17093 890.65722,476.17093 890.25781,479.36869 C 889.85791,482.56644 891.45703,486.16361 891.45703,486.16361 C 891.45703,486.16361 893.45557,491.39457 893.45557,493.39261 C 893.45557,495.39163 893.05567,495.79105 896.65332,498.18949 C 900.25049,500.58793 899.85059,502.18656 902.64893,499.78812 C 905.44678,497.39017 906.2461,496.19095 906.2461,494.19242 C 906.2461,492.19389 906.2461,487.76273 906.2461,487.76273 C 906.2461,487.76273 910.24366,486.96293 911.84229,485.76419 C 913.44141,484.56497 919.83643,480.96731 921.43555,482.56644 C 923.03418,484.16507 925.03272,483.76566 926.63184,482.96585 C 928.23047,482.16653 931.46289,482.16653 933.06153,482.16653 C 934.66017,482.16653 937.4585,482.56594 940.65626,479.76809 C 943.85353,476.97024 943.85353,477.76955 945.85255,479.76809 C 947.85109,481.76663 947.85109,484.16506 946.65187,485.76418 C 945.45265,487.36281 946.65187,490.99465 949.44972,490.99465 C 952.24757,490.99465 953.04689,492.59328 953.04689,494.59182 C 953.04689,496.59036 953.44679,499.3887 953.84669,500.98733 C 954.2461,502.58645 954.2461,503.38577 958.64308,504.58499 C 963.04006,505.78421 962.24025,508.58206 963.04005,510.5806 C 963.83937,512.57914 963.83937,514.17777 961.44142,514.17777 C 959.04298,514.17777 958.24367,515.37699 957.84376,517.37601 C 957.44386,519.37406 953.84669,520.17386 953.84669,520.17386 L 950.24903,519.37406 C 950.24903,519.37406 947.85108,519.37455 946.65186,520.97318 C 945.45264,522.57181 943.0542,525.76957 944.65332,528.56742 C 946.25195,531.36576 946.25195,532.96439 944.65332,534.16361 C 943.0542,535.36283 942.25488,541.39261 940.65625,540.19388 C 939.05713,538.99466 937.05859,540.59329 935.45996,541.39261 C 933.86084,542.19241 934.26074,547.78812 937.4585,549.78714 C 940.65625,551.78519 941.45557,554.58353 941.45557,554.58353 L 945.05274,560.57914 C 945.05274,560.57914 943.85401,561.77836 943.0542,563.77689 C 942.25488,565.77543 939.85645,569.7725 942.25488,570.57181 C 944.65331,571.37112 943.4541,575.7681 941.05566,575.7681 C 938.65722,575.7681 935.85937,574.56888 935.45996,577.76664 C 935.06006,580.96439 933.86084,580.16508 931.46289,579.76566 C 929.06445,579.36576 923.03418,577.76664 921.43555,580.96439 C 919.83643,584.16214 919.43653,585.39554 916.63867,584.99613 C 913.84082,584.59623 915.04004,589.79301 915.83935,591.79105 C 916.63867,593.78959 919.43652,596.58793 919.43652,596.58793 C 919.43652,596.58793 921.83496,598.58647 921.83496,602.58354 C 921.83496,606.58061 920.23633,606.18071 918.63769,603.38286 C 917.03857,600.58501 913.84081,600.98442 913.4414,604.18218 C 913.0415,607.37993 912.6416,612.17681 909.84374,612.17681 C 907.04588,612.17681 905.84667,612.97564 904.64745,614.57476 C 903.44823,616.17388 901.4497,618.97173 901.4497,620.57037 C 901.4497,622.16949 901.0498,623.76812 899.05175,624.16803 C 897.05273,624.56744 896.65331,628.96442 896.65331,628.96442 C 896.65331,628.96442 891.85643,629.72956 891.45702,631.76276 C 891.05712,633.79547 891.85643,636.99323 887.85936,637.39264 C 883.86229,637.79254 881.42967,640.59039 880.23045,642.58893 C 879.03123,644.58795 878.59715,646.18659 880.23045,648.18512 C 881.86375,650.18365 883.06297,656.57916 885.0615,657.77838 C 887.06003,658.9776 888.65916,659.37701 888.25925,662.57477 C 887.85934,665.77253 885.46091,668.17096 888.65915,668.17096 C 891.85642,668.17096 893.85544,668.97028 892.65622,671.76813 C 891.457,674.56647 891.457,674.96588 889.05856,676.1651 C 886.66012,677.36432 885.4609,677.3985 885.4609,680.59625 C 885.4609,683.794 886.2607,683.794 884.26217,684.99322 C 882.26364,686.19244 882.26363,687.79107 882.26363,690.18951 C 882.26363,692.58795 881.42965,691.78814 879.03121,694.58648 C 876.63326,697.38433 873.43551,697.38433 871.43648,696.58502 C 869.43843,695.78522 869.03853,695.7857 868.63863,693.38727 C 868.23922,690.98883 864.64156,690.98883 862.64302,691.38873 C 860.64448,691.78814 857.84663,694.18658 857.84663,694.18658 C 857.84663,694.18658 854.24897,696.58502 855.84809,698.58355 C 857.44672,700.58209 856.64741,703.77984 853.84955,703.37994 C 851.0517,702.98053 844.6557,706.57769 842.65717,702.98053 C 840.65912,699.38287 835.06293,696.98444 834.26362,701.78131 C 833.46382,706.5777 836.66157,706.17779 836.26216,710.97467 C 835.86226,715.77106 835.09761,715.77106 833.46382,717.37018 C 831.83052,718.96881 831.83052,720.16803 831.43111,722.16657 C 831.03121,724.16511 830.66597,728.59626 833.46382,730.19538 C 836.26216,731.79401 837.46089,736.19099 837.46089,738.58893 C 837.46089,740.98737 837.46089,743.38581 840.25923,743.38581 C 843.05708,743.38581 845.45552,742.98591 845.85542,740.18806 C 846.25483,737.39021 851.85103,735.79109 852.25044,741.38728 C 852.65034,746.98298 852.65034,749.78132 854.64888,752.17927 C 856.64742,754.57771 858.24605,757.77546 859.84517,758.97468 C 861.4438,760.1739 864.15718,770.34968 864.15718,770.34968 C 860.22212,771.24909 859.30171,776.71638 856.7939,777.85554 C 855.41988,778.48005 853.86031,777.93074 852.63228,778.98835 C 851.65816,779.82673 851.66988,781.29011 850.1982,781.98542 C 847.29879,783.35554 847.81734,778.45124 844.28804,780.28522 C 841.11519,781.93415 840.82661,785.87995 836.14937,784.18317 C 833.72847,783.30524 832.2773,773.07087 831.55171,770.71003 C 831.11616,769.29304 828.6562,765.14851 827.81929,763.80964 C 825.08687,759.43562 819.76167,763.82478 818.06197,762.52741 C 815.40035,760.49518 816.59322,757.08942 812.48433,756.7696 C 804.14497,756.12067 810.0981,762.25544 806.59175,763.64606 C 799.93843,766.28034 799.91695,756.88776 794.88179,761.17047 C 792.98677,762.78229 797.9023,763.75934 796.70796,766.55914 C 795.70942,768.90143 790.78999,772.37115 791.10103,775.06939 C 791.52925,778.78472 795.19576,779.85357 796.31636,782.95025 C 799.29634,791.18316 794.29195,796.8438 786.82027,790.43658 C 782.64498,786.84527 781.82564,780.11627 775.33589,780.59478 C 773.78706,780.70904 773.373,782.4146 771.81636,782.56597 C 770.29536,782.71392 769.08296,781.03423 767.5439,781.61187 C 765.11128,782.52496 767.26411,784.31695 766.7314,785.76958 C 766.7314,785.76958 763.54585,788.71196 763.01167,789.51079 C 761.24897,792.14458 761.81392,794.4019 759.26167,796.54253 C 757.09907,798.35698 755.34077,797.26763 752.93794,800.08696 C 750.47017,802.98247 750.24067,807.25102 747.05171,810.05473 C 745.41646,811.49174 744.37251,805.88627 742.31245,809.54106 C 742.03511,810.03325 741.706,810.51323 741.48823,811.03911 C 741.01948,812.17046 740.84516,812.64604 741.39839,813.7979 C 745.63032,822.57964 736.84273,825.88726 734.05122,832.10259 C 732.86226,834.75005 736.14839,837.08404 734.89985,839.13482 C 734.00337,840.60748 730.07954,844.70611 729.76069,845.59966 C 729.43012,846.52642 729.01411,848.47857 728.38423,849.15972 C 727.67329,849.92827 725.25777,849.51226 725.09175,850.71197 C 724.89448,852.13482 727.61323,853.2481 728.32564,854.07867 C 729.23775,855.14263 727.92916,856.63336 728.2607,856.99615 C 732.77291,861.9317 730.06441,860.35064 732.37447,864.74566 C 732.68453,865.33599 734.0483,864.24127 734.60494,865.81597 C 735.12447,867.28618 733.53023,867.20708 734.07027,868.88579 C 734.21578,869.33696 737.34517,873.86333 737.35787,873.94731 C 737.57906,875.41655 731.25875,878.52495 729.85836,878.57768 C 726.06002,878.72026 733.20699,870.03373 726.93502,870.03373 C 724.19381,870.03373 724.08297,876.72367 723.3735,877.4268 C 723.11862,877.67973 720.56442,877.39848 719.98678,877.39897 C 715.95699,877.39751 713.39645,882.76811 711.79391,883.3394 C 710.75875,883.70756 708.57516,882.71586 706.84518,883.03764 C 705.20456,883.34282 703.33737,885.04692 701.85543,885.04692 C 700.86813,885.04692 700.36275,884.36528 699.59566,883.86821 C 697.82711,882.72221 694.52779,882.25395 692.47457,881.58305 C 691.39254,881.22905 689.32223,883.12602 688.60787,882.62993 C 687.3315,881.74321 689.51705,879.20708 686.49264,877.38335 C 686.1191,877.15825 683.89157,871.34526 683.97018,871.03716 C 684.94039,867.23443 686.1025,863.15581 685.55075,859.13726 C 684.98386,855.00542 679.02975,851.55523 677.41061,848.27447 C 676.18307,845.78814 675.12252,839.15142 672.83639,837.4942 C 670.33102,835.67291 668.06784,832.17096 666.74703,829.47369 C 666.34713,828.6568 667.519,827.25836 666.60543,825.89849 C 665.59664,824.39751 663.67818,823.79107 663.21773,821.81011 C 662.85591,820.25493 663.20796,814.98736 661.55269,813.88775 C 659.67623,812.64068 647.47017,811.09576 644.47749,810.83648 C 642.91694,810.70123 641.65913,810.71978 640.52241,809.47955 C 640.04487,808.95855 639.25971,806.90094 638.78511,806.87896 C 637.60933,806.82476 636.18257,807.52447 634.94575,807.62701 C 634.02632,807.70318 632.59321,807.02642 631.76362,807.64019 C 627.90522,810.49468 626.87934,814.26665 623.12104,817.35748 C 619.35493,820.45416 615.15913,820.36822 611.35737,823.9942 C 608.99653,826.24518 607.34467,831.81891 605.00434,834.43463 C 603.99409,835.56402 602.36127,834.38873 601.96088,834.92486 C 599.98334,837.5772 597.16693,839.25201 595.18744,841.74713 C 594.78412,842.25494 594.92767,843.2027 594.39252,843.61822 L 590.12885,844.80474 C 589.03608,844.95611 586.87983,844.7022 586.03559,844.99615 C 583.99848,845.70562 584.09809,847.97369 577.2978,849.46881 C 576.80415,849.5777 575.94477,850.02106 575.52241,850.3194 C 574.70405,850.89704 574.13569,851.82428 573.35932,852.39167 C 572.85444,852.76081 571.33637,852.06013 570.4687,852.23396 C 568.75483,852.57673 567.78413,854.11531 566.15327,854.32869 C 562.58735,854.79549 556.79048,852.53963 553.9687,853.75642 C 552.27143,854.48835 547.52046,860.18367 545.91304,860.75251 C 544.83003,861.13532 544.05952,860.62507 542.80366,860.13093 C 542.22309,860.94343 540.7812,867.09822 540.30268,868.49372 C 540.26362,868.60895 532.61762,875.63239 532.02436,876.39509 C 531.05366,877.64216 530.59174,878.92634 529.44233,880.23689 C 528.65571,881.13386 527.29585,881.90584 526.07807,881.91072 C 524.45161,881.91707 522.05756,880.60603 520.56977,880.32136 C 517.71967,879.77644 509.01655,879.42829 506.37153,880.04255 C 503.67475,880.66901 504.42866,889.0196 497.77632,889.88679 C 493.83003,890.40095 490.24165,891.20222 486.24653,891.54548 C 485.84077,891.58064 483.42231,889.78376 481.08735,890.4903 C 480.16938,890.76813 477.31538,893.96735 477.31147,895.00202 L 477.30561,896.76667 C 477.30415,897.11433 478.1103,898.17878 478.00532,898.31403 C 476.49507,900.2613 473.11567,903.16999 471.95796,905.44001 C 471.66597,906.01374 471.28999,906.72907 470.78804,907.14411 C 469.92427,907.85847 465.24849,909.73249 464.91548,910.61628 C 463.80025,913.57722 468.07124,916.44099 467.7231,917.60993 C 466.56001,921.51325 461.74947,925.20514 460.20406,928.8111 C 459.56051,930.31256 461.84664,935.32721 461.67916,936.97126 C 461.20016,941.69929 459.69381,947.62946 459.91402,952.30866 C 459.95552,953.19245 460.53072,957.88874 460.81978,958.40192 C 461.30611,959.26667 462.44429,959.8321 463.10542,960.56598 C 463.83784,961.37946 469.15376,972.57526 469.31001,973.81012 C 470.35933,982.09479 459.24263,979.22272 465.6269,987.49762 C 466.59516,988.7525 467.38032,990.16461 468.48823,991.31012 C 469.92964,992.80035 478.08637,999.30426 478.19038,1000.0167 C 478.35933,1001.169 471.63862,1002.3873 470.34565,1003.7491 C 467.12348,1007.1436 464.45161,1013.4844 461.37153,1016.9312 C 459.43257,1019.1011 457.77924,1016.6963 455.23237,1021.816 C 454.30708,1023.6778 455.22114,1027.9918 454.17329,1029.1973 C 452.60005,1031.0074 451.26118,1028.6368 449.66987,1029.4063 C 448.98335,1029.7378 448.59077,1031.8614 447.83003,1032.546 C 445.98189,1034.2086 430.04439,1043.4571 428.55269,1042.6656 C 427.78658,1042.2588 426.89156,1039.3458 426.70406,1038.4683 C 426.49312,1037.4839 425.45699,1035.2696 424.73677,1034.5884 C 420.67085,1030.7447 414.31831,1030.0635 410.32222,1034.7076 C 409.2729,1035.9268 409.26411,1037.7369 407.95992,1038.9151 C 405.7856,1040.8785 403.2192,1042.6758 401.15328,1044.6724 C 400.78219,1045.0308 399.51803,1046.563 399.1025,1046.5064 C 397.47555,1046.2852 393.60836,1041.5401 392.61324,1040.2198 C 390.84517,1037.8741 385.62252,1032.3809 385.12789,1029.8345 C 385.12789,1020.9444 378.69137,1011.6006 376.00875,1002.9034 L 379.99361,1002.9986 C 384.47945,999.65142 383.18306,991.5733 391.32564,994.75396 C 392.37154,993.22955 392.2524,991.69732 394.1147,990.53912 C 394.79243,990.11724 396.07808,989.69781 396.50435,988.99371 C 399.21578,984.51129 402.37007,967.32428 399.55953,962.86187 C 397.02242,958.83453 394.47017,959.01226 392.47652,952.51031 C 391.91695,950.68511 392.94136,948.57086 392.43209,946.65679 C 392.00631,945.05669 389.33932,935.5982 388.89645,934.8106 C 388.43112,933.98443 386.71872,933.03472 386.61618,932.4815 C 386.46823,931.68414 385.88327,921.3897 386.2612,920.54058 C 383.59665,912.51665 374.49216,907.45415 373.95456,906.54351 C 372.80661,904.59673 371.70798,902.1441 370.57224,900.07378 C 369.20994,897.59038 369.15574,896.2686 368.38962,893.83355 C 368.04441,892.73638 366.59177,891.85748 366.5029,890.65044 C 366.34616,888.5269 371.75534,884.19487 371.55563,880.43755 C 371.49313,879.26567 368.10251,875.63384 368.74459,873.5938 C 369.40035,871.51128 372.96676,866.81841 372.83297,864.46196 C 372.65572,861.34282 367.36471,854.63091 366.65963,851.31596 C 366.32662,849.75004 368.74801,848.36967 368.19381,847.28129 C 367.45992,845.84086 361.8984,840.3975 360.99801,838.77348 C 360.33151,837.57133 363.11031,835.98246 361.09567,833.77934 C 359.29635,831.81108 360.81881,832.48393 360.25094,830.82622 C 359.60641,828.94292 357.66451,827.23247 356.8691,825.21001 C 356.19478,823.49614 351.33931,804.71196 351.50142,803.61821 C 350.65669,802.28716 349.27046,801.17778 348.57271,799.91704 C 347.82759,798.57134 347.58589,796.1563 346.9399,795.1314 C 346.85347,794.99419 341.51656,793.32915 340.49215,791.65923 C 339.65865,790.30083 339.45797,785.65972 338.09274,783.35747 C 337.41696,782.21831 336.33542,782.41509 335.49118,781.70171 C 334.7568,781.08062 334.88962,780.00982 334.39743,779.26128 C 332.84128,776.89556 329.63962,779.04595 327.43698,770.21245 C 324.54831,767.99272 321.85446,766.11235 319.29733,763.45366 C 318.8276,762.96489 318.50192,762.34819 317.86178,762.04009 C 315.90475,761.09771 312.89059,760.87212 311.15866,759.27202 C 310.1318,759.30718 304.90524,759.07231 304.21725,758.66802 C 303.58688,758.2979 302.97848,755.74224 302.64498,755.6729 C 299.82564,755.08745 295.2607,755.40239 292.8735,753.17583 C 290.99606,751.42534 290.61715,742.67437 287.2109,743.85845 C 286.83688,743.62456 286.27633,743.47417 285.83444,743.54644 C 283.66891,740.47076 275.99997,740.04302 272.95651,738.05474 C 272.09469,737.49126 269.15133,737.97466 269.1821,737.09722 C 269.83249,735.43853 269.71433,734.00445 269.73288,732.27349 C 268.00339,730.43511 266.97116,728.37701 265.70212,727.09331 C 262.80661,726.36333 263.94626,726.06401 262.10349,724.84624 C 257.11521,724.45659 256.55661,725.38091 253.43308,728.58989 C 252.65525,729.38921 251.05222,729.57036 250.05222,730.17094 C 248.39109,731.16801 247.82615,734.47807 245.47165,732.93852 C 244.70358,732.43657 244.19284,731.62846 243.52438,731.02495 C 242.11422,729.75102 241.28073,730.40923 240.59469,728.07134 C 236.52389,725.65679 225.22311,733.98736 222.48776,728.17437 C 220.56637,727.05132 219.17672,728.45025 217.57223,726.69878 C 216.75631,725.80767 219.72555,715.75835 211.57565,711.74224 C 213.46872,710.1021 215.46188,709.05279 217.25827,707.5606 C 217.74167,706.48345 217.19675,704.80962 217.17966,703.69097 C 217.15476,702.0147 218.22165,698.7354 217.84812,697.45122 C 217.49851,696.25102 216.3613,695.2144 215.90134,693.89604 C 215.40525,692.47465 215.99021,690.74565 215.332,689.15239 C 214.78268,688.76079 213.3779,687.72173 212.71628,687.73833 C 210.63376,685.87358 208.30661,684.60552 206.64743,682.35747 C 206.27731,681.85552 205.92819,680.93364 205.43405,680.55181 C 203.92331,679.38384 199.0151,677.76665 199.26413,675.21978 C 199.34616,674.38091 200.37253,674.27837 200.62106,673.50152 C 200.94674,672.48492 200.75631,671.16998 201.38229,670.25884 C 203.686,666.90728 208.81149,668.32427 207.94381,662.03228 C 207.56197,659.26275 205.78854,656.83746 205.24996,653.8731 C 204.34664,653.18999 204.20894,652.01372 203.43941,651.23931 C 198.4106,650.77154 199.12447,645.14898 197.33052,643.82036 C 192.06929,639.92339 187.95796,642.33452 193.83443,634.63677 C 194.61519,632.1646 188.76705,628.09868 187.49947,626.75884 C 185.39254,624.53228 186.42183,619.93169 185.6484,617.5313 C 185.26168,616.33013 181.78268,614.25396 180.67086,612.54985 C 180.32516,612.02055 179.42477,609.4644 178.94332,609.17583 L 179.04635,608.35796 C 180.18697,607.40923 179.54342,605.69976 179.22799,604.46782 C 178.53121,603.73149 177.02487,603.9268 176.55074,603.45903 C 171.73629,598.71098 165.9233,596.70122 159.66744,594.00005 C 157.96041,593.26226 158.44625,591.84819 157.05221,591.12066 C 155.89596,590.51763 147.38473,586.46197 146.73336,586.6065 C 145.72555,586.32818 145.00973,582.21197 144.35201,580.89019 C 143.77681,579.73443 141.34859,577.51568 141.34859,577.38384 C 141.51949,573.63335 139.35396,573.11333 136.67086,571.09527 C 136.85885,570.55279 136.39059,569.39556 136.37691,568.76324 C 136.36714,568.29205 138.14791,561.67779 138.44527,560.77935 C 138.92183,559.34136 140.6064,558.03228 140.35152,556.45855 C 139.94869,553.9688 139.6689,550.05621 138.90132,547.85015 C 136.17964,540.02495 132.96577,541.07525 134.6855,530.88628 C 135.04634,528.7481 134.41597,527.57964 135.8398,525.71685 C 135.68355,525.58843 136.52828,524.57281 136.66402,524.43804 C 137.59078,523.51421 140.05416,522.04742 140.56636,521.31353 C 142.06734,519.1607 143.01265,514.07915 144.89009,512.47564 C 146.27437,511.29302 150.29878,508.97173 151.03853,508.01519 C 151.64009,507.23736 152.53804,504.75005 152.04097,503.72515 C 150.66597,502.79107 149.25386,503.26812 147.81685,503.04449 C 147.3271,502.96783 145.55415,501.57476 144.16304,501.2774 C 143.80415,500.75006 143.08736,500.15289 143.11177,499.46881 L 142.55366,498.91412 C 140.99897,498.73297 139.15669,497.66021 137.72407,497.06939 C 135.8769,496.30865 133.44428,496.13287 131.74507,495.05523 C 128.54195,493.02447 124.89986,487.51373 121.82319,486.78228 C 117.60932,485.78082 114.90131,487.13628 110.91596,487.3731 C 108.26899,487.52984 108.29755,485.90533 106.185,485.21636 C 103.34931,484.29156 105.48285,486.83794 99.1225,484.59185 C 98.30585,483.91216 99.50629,481.51177 99.61518,480.5938 C 98.65986,480.29839 97.37617,480.87456 96.16572,480.56011 C 90.89448,479.1895 92.8227,473.96782 91.50044,470.51226 C 90.87056,469.7066 88.65352,469.87408 87.7231,469.8521 C 87.47237,469.71831 87.28682,469.28423 87.4272,469.01909 L 87.95259,468.60112 C 88.87617,467.12798 85.61812,463.30766 85.71846,462.83012 C 85.96626,461.64897 92.4023,460.55619 93.34053,460.46733 C 93.66035,459.54204 92.77827,458.77153 92.68355,457.89555 C 92.46919,455.91655 93.69551,453.29155 94.29293,451.4644 L 94.06246,450.83794 C 92.26436,449.78179 91.69747,448.09185 90.08834,446.87505 C 90.22652,445.94243 91.24337,445.32866 91.53365,444.44243 C 94.59566,435.0977 99.39205,442.58501 103.62301,433.94341 C 104.02462,433.12359 105.25851,431.00982 105.59445,429.63286 L 106.35007,429.39018 C 107.15573,429.62748 108.20017,430.31938 109.07614,429.98149 C 109.72458,429.07524 110.96384,428.80376 111.96799,428.48735 L 113.5112,428.90288 C 121.30026,427.12554 119.4863,424.02642 124.05759,420.49028 C 125.25339,419.56548 128.79734,419.14555 130.39792,418.61528 C 132.07614,419.36821 134.53073,422.29692 137.69089,423.62016 C 139.96189,424.57084 147.88571,426.45903 149.18894,427.23637 C 150.93113,428.27494 151.21091,430.65825 152.73777,431.54448 C 157.26804,434.1729 154.61082,429.74223 158.91306,430.67778 C 163.3115,431.63335 166.87937,435.54839 171.03562,437.48833 C 171.77732,437.83403 173.41892,437.38774 174.22263,437.19878 C 175.54099,436.88823 182.47849,435.48589 183.25681,435.752 C 184.08689,436.03569 185.27048,436.85112 186.04929,437.00298 C 187.01316,437.19097 187.89206,434.91509 188.54587,435.02153 C 191.50095,435.50346 191.68747,436.85551 195.64255,436.44585 C 195.8447,436.42485 197.76169,424.22856 199.65036,423.6563 C 200.78317,423.31255 203.70993,426.52984 204.67673,426.78228 C 206.14548,427.13384 204.54148,424.29888 204.47995,424.13091 C 204.103,423.10405 201.93747,415.62652 202.04831,414.89556 C 202.10544,414.52105 204.082,415.52837 204.93942,415.21001 C 207.16745,414.38189 210.12985,413.7686 211.73971,411.93071 C 211.95748,411.68217 215.37301,406.40337 215.4194,406.20708 C 215.63083,405.31157 214.51266,403.2227 215.02487,402.52349 C 215.50046,401.87456 217.44235,401.14947 218.31051,400.1607 C 219.56344,398.73345 219.83492,396.35064 221.56246,395.36236 C 228.67525,394.7022 231.18746,388.63433 237.56197,387.85552 C 237.93258,387.8106 239.37886,387.55913 239.66451,387.64702 L 240.94576,389.9063 C 241.34957,390.5396 245.61471,393.30034 246.30074,393.13921 C 246.92818,392.99126 247.18258,391.9395 247.81148,391.71441 C 249.14742,391.88433 252.69478,389.51104 253.13375,388.27374 C 253.22213,388.02496 252.34664,386.84381 252.7065,386.04742 C 252.96578,385.47296 257.4897,381.89166 258.22603,381.4942 C 259.8149,381.48443 261.53218,381.06891 262.98921,381.70318 C 263.85249,382.07916 263.94233,383.65093 264.9604,383.75396 C 266.04097,383.86309 268.05024,383.36968 268.83638,383.54522 C 269.73047,383.74487 270.10059,381.78418 271.27246,381.6792 z " />
    <path fill="none" stroke="none" stroke-linejoin="round" stroke-linecap="round" d="M 864.15723,770.34961 C 864.15723,770.34961 861.44385,760.17383 859.84522,758.97461 C 858.2461,757.77539 856.64747,754.57764 854.64893,752.1792 C 852.65039,749.78125 852.65039,746.98291 852.25049,741.38721 C 851.85108,735.79102 846.25488,737.39014 845.85547,740.18799 C 845.45557,742.98584 843.05713,743.38574 840.25928,743.38574 C 837.46094,743.38574 837.46094,740.9873 837.46094,738.58886 C 837.46094,736.19091 836.26221,731.79394 833.46387,730.19531 C 830.66602,728.59619 831.03125,724.16504 831.43116,722.1665 C 831.83057,720.16796 831.83057,718.96875 833.46387,717.37011 C 835.09766,715.77099 835.86231,715.77099 836.26221,710.9746 C 836.66162,706.17772 833.46387,706.57763 834.26367,701.78124 C 835.06299,696.98436 840.65918,699.3828 842.65722,702.98046 C 844.65576,706.57763 851.05175,702.98046 853.8496,703.37987 C 856.64745,703.77977 857.44677,700.58202 855.84814,698.58348 C 854.24902,696.58494 857.84668,694.18651 857.84668,694.18651 C 857.84668,694.18651 860.64453,691.78807 862.64307,691.38866 C 864.64161,690.98876 868.23926,690.98876 868.63868,693.3872 C 869.03858,695.78564 869.43848,695.78515 871.43653,696.58495 C 873.43555,697.38427 876.63331,697.38427 879.03126,694.58641 C 881.4297,691.78807 882.26368,692.58787 882.26368,690.18944 C 882.26368,687.79101 882.26368,686.19237 884.26222,684.99315 C 886.26076,683.79393 885.46095,683.79393 885.46095,680.59618 C 885.46095,677.39843 886.66017,677.36425 889.05861,676.16503 C 891.45705,674.96581 891.45705,674.5664 892.65627,671.76806 C 893.85549,668.97021 891.85647,668.17089 888.6592,668.17089 C 885.46096,668.17089 887.8594,665.77245 888.2593,662.5747 C 888.6592,659.37695 887.06008,658.97753 885.06155,657.77831 C 883.06302,656.57909 881.8638,650.18358 880.2305,648.18505 C 878.5972,646.18652 879.03128,644.58788 880.2305,642.58886 C 881.42972,640.59032 883.86234,637.79247 887.85941,637.39257 C 891.85648,636.99316 891.05716,633.7954 891.45707,631.76269 C 891.85648,629.72949 896.65336,628.96435 896.65336,628.96435 C 896.65336,628.96435 897.05277,624.56738 899.0518,624.16796 C 901.04985,623.76806 901.44975,622.16942 901.44975,620.5703 C 901.44975,618.97167 903.44829,616.17382 904.6475,614.57469 C 905.84671,612.97556 907.04594,612.17674 909.84379,612.17674 C 912.64164,612.17674 913.04154,607.37986 913.44145,604.18211 C 913.84086,600.98436 917.03862,600.58494 918.63774,603.38279 C 920.23637,606.18064 921.83501,606.58054 921.83501,602.58347 C 921.83501,598.5864 919.43657,596.58786 919.43657,596.58786 C 919.43657,596.58786 916.63872,593.78952 915.8394,591.79098 C 915.04008,589.79293 913.84086,584.59616 916.63872,584.99606 C 919.43657,585.39547 919.83647,584.16208 921.4356,580.96432 C 923.03423,577.76657 929.06451,579.36569 931.46294,579.76559 C 933.86089,580.165 935.06011,580.96432 935.46001,577.76657 C 935.85942,574.56882 938.65728,575.76803 941.05571,575.76803 C 943.45414,575.76803 944.65337,571.37106 942.25493,570.57174 C 939.85649,569.77242 942.25493,565.77535 943.05425,563.77682 C 943.85405,561.77828 945.05279,560.57907 945.05279,560.57907 L 941.45562,554.58346 C 941.45562,554.58346 940.6563,551.78512 937.45855,549.78707 C 934.2608,547.78805 933.86089,542.19234 935.46001,541.39254 C 937.05864,540.59322 939.05718,538.99459 940.6563,540.19381 C 942.25493,541.39254 943.05425,535.36276 944.65337,534.16354 C 946.252,532.96432 946.252,531.36569 944.65337,528.56735 C 943.05425,525.7695 945.45269,522.57174 946.65191,520.97311 C 947.85113,519.37448 950.24908,519.37399 950.24908,519.37399 L 953.84674,520.17379 C 953.84674,520.17379 957.44391,519.37399 957.84381,517.37594 C 958.24371,515.37692 959.04303,514.1777 961.44147,514.1777 C 963.83942,514.1777 963.83942,512.57907 963.0401,510.58053 C 962.2403,508.58199 963.0401,505.78414 958.64313,504.58492 C 954.24616,503.3857 954.24616,502.58638 953.84674,500.98726 C 953.44684,499.38863 953.04694,496.59029 953.04694,494.59175 C 953.04694,492.59321 952.24762,490.99458 949.44977,490.99458 C 946.65192,490.99458 945.4527,487.36274 946.65192,485.76411 C 947.85114,484.16499 947.85114,481.76655 945.8526,479.76802 C 943.85358,477.76948 943.85358,476.97017 940.65631,479.76802 C 937.45856,482.56587 934.66022,482.16646 933.06158,482.16646 C 931.46294,482.16646 928.23053,482.16646 926.63189,482.96578 C 925.03277,483.76558 923.03423,484.165 921.4356,482.56637 C 919.83648,480.96725 913.44146,484.56491 911.84234,485.76412 C 910.24371,486.96285 906.24615,487.76266 906.24615,487.76266 C 906.24615,487.76266 906.24615,492.19381 906.24615,494.19235 C 906.24615,496.19089 905.44683,497.3901 902.64898,499.78805 C 899.85064,502.18649 900.25054,500.58785 896.65337,498.18942 C 893.05571,495.79098 893.45562,495.39157 893.45562,493.39254 C 893.45562,491.39449 891.45708,486.16354 891.45708,486.16354 C 891.45708,486.16354 889.85796,482.56637 890.25786,479.36862 C 890.65727,476.17087 887.85942,476.17087 885.06157,478.5693 C 882.26372,480.96725 880.23052,480.56735 877.83208,480.16793 C 875.43413,479.76803 870.23784,478.96871 868.63872,476.97018 C 867.04009,474.97164 865.44145,474.17184 863.04302,473.37301 C 860.64458,472.57321 863.84234,469.37594 866.64019,466.9775 C 869.43804,464.57906 865.44146,461.38131 864.24224,459.38277 C 863.04302,457.38423 860.24517,457.38423 858.24615,456.98433 C 856.2481,456.58492 854.64898,456.58492 852.65045,453.38716 C 850.65192,450.1894 847.05426,452.58784 846.25494,455.3857 C 845.45562,458.18356 842.25787,458.58345 840.65924,456.18502 C 839.06012,453.78658 837.461,455.78512 836.26227,457.38424 C 835.06305,458.98287 833.46393,458.98287 831.83063,458.98287 C 830.19733,458.98287 829.83209,459.38277 828.63336,457.38424 C 827.43414,455.3857 827.03424,453.38717 824.23639,453.78707 C 821.43805,454.18648 819.0401,454.18648 819.0401,452.18795 C 819.0401,450.18942 818.2403,448.9902 815.84235,448.9902 C 813.44391,448.9902 813.44391,449.78952 811.44538,446.59176 C 809.44684,443.39449 807.0489,446.19235 805.84968,448.9902 C 804.65046,451.78805 804.25056,453.78708 802.65193,451.38864 C 801.05281,448.9902 800.65339,450.18942 798.65486,448.5903 C 796.65632,446.99167 795.85652,447.39157 795.85652,443.79391 C 795.85652,440.19625 791.46004,442.19528 789.86091,443.3945 C 788.26228,444.59323 785.46394,444.59323 783.43122,444.59323 C 781.39802,444.59323 774.63776,444.19382 774.63776,444.19382 C 774.63776,444.19382 774.63776,447.39157 772.63874,447.39157 C 770.6402,447.39157 769.84089,448.19089 767.04304,444.19382 C 764.24519,440.19626 765.44392,436.96433 767.84236,436.56491 C 770.2408,436.16501 771.04011,436.16501 771.04011,433.76657 C 771.04011,431.36862 775.03718,430.1694 777.03572,428.57028 C 779.03426,426.97165 779.43416,425.77243 776.2364,424.57321 C 773.03865,423.37448 774.23786,419.37692 775.8365,418.5776 C 777.43562,417.77828 778.23494,416.57906 775.43709,414.58053 C 772.63875,412.58199 775.8365,409.38424 776.23641,407.38571 C 776.63582,405.38717 779.03426,405.78708 781.83211,405.78708 C 784.63045,405.78708 784.23055,403.78806 784.23055,403.78806 C 784.23055,403.78806 784.63045,400.19089 784.63045,398.59202 C 784.63045,396.99315 785.46395,394.19529 783.03133,393.79539 C 780.59871,393.39573 781.03279,391.36277 782.63192,390.16355 C 784.23055,388.96433 784.23055,389.36423 784.23055,386.56614 C 784.23055,383.76805 785.86385,382.96873 785.86385,379.77097 C 785.86385,376.57321 787.46297,376.57322 789.0616,376.97312 C 790.66023,377.37302 792.25935,376.97312 791.46004,373.37571 C 790.66024,369.7783 791.46004,370.17796 792.25936,367.77976 C 793.05868,365.38132 791.46004,361.38425 791.46004,361.38425 C 791.46004,361.38425 788.26229,359.78537 785.86385,358.98581 C 783.4659,358.18649 777.03573,359.78537 777.03573,359.78537 C 777.03573,359.78537 772.23934,361.38425 771.04012,362.98288 C 769.8409,364.582 769.04158,365.38132 767.04305,364.1821 C 765.04403,362.98313 763.44539,362.98288 762.64608,361.38425 C 761.84676,359.78537 760.64754,360.18503 758.64901,361.38425 C 756.65048,362.58347 756.25057,360.98435 756.25057,358.98581 C 756.25057,356.98727 753.85262,356.98727 751.45418,356.98727 C 749.05574,356.98727 749.05574,353.78952 751.05428,352.19088 C 753.05282,350.592 749.45565,346.99459 748.25643,343.76241 C 747.05721,340.53023 745.05868,340.96431 745.05868,340.96431 C 745.05868,340.96431 737.46395,340.5649 735.83065,340.5649 C 734.19735,340.5649 732.23348,340.5649 730.63485,339.36568 C 729.03573,338.16646 725.83797,339.76534 724.23934,340.5649 C 722.64022,341.36422 720.24227,341.76412 719.44246,344.99605 C 718.64314,348.22798 717.04402,345.39571 714.64607,345.39571 C 712.24812,345.39571 712.64753,344.19649 712.64753,344.19649 C 712.64753,344.19649 712.24763,338.96578 712.24763,336.96724 C 712.24763,334.9687 709.84968,331.37129 707.85115,330.97139 C 705.85261,330.57173 703.45418,328.17378 703.45418,326.175 C 703.45418,324.17646 700.25643,321.37837 700.25643,319.37983 C 700.25643,317.38129 700.65633,316.18208 697.45858,313.38422 C 694.26083,310.58612 694.66024,308.98725 693.46102,306.58905 C 692.26229,304.19086 693.06161,302.19232 695.06014,300.5932 C 697.05868,298.99457 696.25936,298.19525 696.25936,296.59613 C 696.25936,294.9975 695.85946,291.76532 697.05868,289.76654 C 698.2579,287.768 698.65731,287.36859 696.25936,285.76947 C 693.86141,284.17084 693.86092,279.77386 693.86092,279.77386 C 693.86092,279.77386 693.0616,272.17938 693.0616,268.98162 C 693.0616,265.78411 689.06453,266.18352 689.06453,264.18499 C 689.06453,262.18646 688.23055,260.18792 686.23201,260.18792 C 684.23347,260.18792 683.83357,261.38714 681.03572,257.78948 C 678.23787,254.19207 675.83943,257.78948 675.83943,257.78948 C 675.83943,257.78948 675.04011,261.78679 673.44148,262.98577 C 671.84236,264.18499 672.24226,266.18352 673.84089,268.18206 C 675.43952,270.18084 674.2403,271.37981 672.64167,271.77972 C 671.04304,272.17938 670.64313,272.97869 668.6446,274.57757 C 666.64607,276.17645 663.44831,273.37835 663.0489,271.77972 C 662.649,270.1806 661.04988,268.98162 659.05183,268.18206 C 657.05281,267.38274 658.25203,263.38567 660.25056,262.18645 C 662.24909,260.98723 661.04988,259.78826 661.04988,256.59026 C 661.04988,253.39299 660.25056,253.39299 656.6534,253.79241 C 653.05574,254.19231 653.85555,251.39422 654.25496,249.79534 C 654.65486,248.19671 653.45564,240.96722 653.45564,240.96722 C 653.45564,240.96722 651.0572,233.7724 651.0572,232.17376 C 651.0572,230.57464 649.85798,229.37566 647.85945,227.77679 C 645.8614,226.17767 646.66023,222.98016 646.66023,220.18206 C 646.66023,217.38421 647.46003,216.98431 649.85798,215.38567 C 652.25642,213.78655 651.85652,208.19085 649.05866,206.59197 C 646.2608,204.99309 647.06012,204.59319 647.46003,199.76238 C 647.85944,194.93157 643.86237,195.76531 642.26374,197.76409 C 640.66462,199.76238 635.43415,199.36272 633.43562,198.56316 C 631.4366,197.76384 628.23933,192.1679 628.23933,190.56902 C 628.23933,188.97014 626.24031,186.97136 624.64167,185.77239 C 623.04304,184.57317 620.6446,182.17498 620.24519,184.57317 C 619.84529,186.97161 617.44685,186.97136 617.44685,189.37005 C 617.44685,191.76824 619.84529,192.96722 619.84529,194.56609 C 619.84529,196.16496 618.24617,196.16497 615.84822,196.16497 C 613.44978,196.16497 610.65193,198.16351 608.6534,199.76238 C 606.65438,201.36126 603.05721,200.59612 602.25789,198.96282 C 601.45857,197.32952 601.05867,193.76678 601.05867,193.76678 C 601.05867,193.76678 596.6617,193.76678 594.26375,189.76947 C 591.86531,185.7724 592.66463,185.37299 592.66463,185.37299 C 592.66463,185.37299 585.43563,182.17499 582.63777,180.97577 C 579.83943,179.7768 576.24226,180.57611 575.04304,182.97455 C 573.84382,185.37299 569.44685,183.77387 567.44831,183.77387 C 565.44977,183.77387 564.25056,184.57319 564.25056,186.97138 C 564.25056,189.36982 561.45271,190.56904 561.45271,190.56904 C 561.45271,190.56904 557.85554,190.16938 555.85652,190.56904 C 553.85798,190.9687 552.65925,190.16938 552.65925,188.57026 C 552.65925,186.97138 551.85945,184.97309 551.85945,184.97309 L 544.23054,182.17499 L 543.83064,178.17792 C 543.83064,178.17792 541.8321,174.98017 540.63337,173.38129 C 539.43415,171.78241 536.2364,172.58197 534.23786,173.78119 C 532.23932,174.98016 531.04011,174.1806 530.6402,172.18207 C 530.24079,170.18378 529.04157,169.38422 527.04303,168.185 C 525.04449,166.98578 523.04596,166.58637 522.64606,163.38837 C 522.24616,160.19086 519.84821,158.99164 517.84967,160.19086 C 515.85065,161.39008 515.05182,161.39008 512.65338,161.39008 C 510.25494,161.39008 508.65631,161.39008 507.45709,157.79242 C 506.25787,154.19525 504.65924,155.39423 502.66021,157.39301 C 500.66167,159.39155 498.66314,158.99164 497.46392,156.99311 C 496.26519,154.99457 495.0313,155.39423 495.0313,152.99604 C 495.0313,150.5976 495.83062,148.16499 498.66314,148.16499 C 501.49566,148.16499 502.66021,149.36421 504.25933,147.36567 C 505.85845,145.36713 507.05718,146.16645 507.05718,143.3686 C 507.05718,140.57026 505.85796,139.77094 502.66021,138.97138 C 499.46294,138.17231 501.46148,133.77534 503.46001,133.77534 C 505.45854,133.77534 508.2564,132.97578 508.2564,132.97578 C 508.2564,132.97578 509.45562,131.77681 511.45415,131.3769 C 513.45269,130.97724 514.6519,132.17646 520.24761,134.97456 C 525.8438,137.77241 521.44683,132.17646 521.44683,132.17646 C 521.44683,132.17646 519.04839,128.97871 518.24908,126.98017 C 517.44977,124.98163 517.84967,123.78242 517.84967,121.78388 C 517.84967,119.78534 516.65045,118.18647 514.25201,117.38715 C 511.85357,116.58759 511.05426,115.38837 511.05426,113.39008 C 511.05426,111.3913 510.25494,109.79242 507.85651,110.19233 C 505.45856,110.59199 505.45856,108.99311 506.25788,106.99458 C 507.0572,104.99605 504.65925,103.7624 502.66022,102.56318 C 500.66168,101.36421 499.06305,99.76533 499.06305,97.36714 C 499.06305,94.9687 495.03131,92.57026 492.63336,92.57026 C 490.23492,92.57026 488.23639,92.17085 485.03863,92.17085 C 481.84087,92.17085 481.84088,91.77095 478.64312,94.16939 C 475.44536,96.56783 477.4439,98.16646 479.04302,99.36568 C 480.64165,100.5649 479.84234,103.36275 479.84234,104.99605 C 479.84234,106.62935 479.04302,109.79244 479.04302,109.79244 C 479.04302,109.79244 475.04595,109.79244 472.24761,107.7939 C 469.44976,105.79536 466.65191,106.59468 464.65337,107.39424 C 462.65435,108.1938 458.65728,107.39424 458.65728,107.39424 C 458.65728,107.39424 455.06011,106.59468 452.26226,104.16206 C 449.46392,101.72944 445.43267,103.36274 445.03277,104.59614 C 444.63336,105.82978 443.03423,108.99311 443.03423,110.59199 C 443.03423,112.19087 442.23491,114.58906 440.23638,114.58906 C 438.23785,114.58906 435.83941,118.58637 433.84087,119.78535 C 431.84233,120.98433 429.8438,123.78242 429.8438,125.3813 C 429.8438,126.98018 426.64605,129.77827 425.04692,130.57759 C 423.44829,131.37715 418.6519,131.77681 416.65337,130.57759 C 414.65435,129.37862 410.25786,129.77827 407.85942,132.17647 C 405.46147,134.57466 403.46294,132.97579 401.86381,131.37691 C 400.26518,129.77828 399.03129,130.9775 395.83354,132.57613 C 392.63627,134.17476 388.63872,133.37569 386.24077,131.37691 C 383.84233,129.37837 383.44243,131.37691 381.44389,134.17501 C 379.44535,136.97311 380.64457,138.17232 385.04155,139.3713 C 389.43853,140.57028 390.23784,142.56905 391.43706,145.36715 C 392.63628,148.165 391.83647,151.76241 388.63872,153.79537 C 385.44097,155.82857 388.63872,158.99166 391.43706,158.99166 C 394.23491,158.99166 404.64653,162.03243 404.64653,162.03243 L 410.50053,165.93502 C 410.50053,165.93502 414.40336,166.91061 414.40336,173.2524 C 414.40336,179.59419 412.4517,176.66719 412.4517,179.1064 C 412.4517,181.54536 414.89115,182.03316 417.81791,183.00874 C 420.74516,183.98433 422.69633,186.42378 423.18412,187.88716 C 423.67191,189.35054 426.59867,192.76533 428.54984,195.2043 C 430.5015,197.64351 430.5015,202.71529 430.01371,205.15425 C 429.52592,207.59346 428.06205,208.08101 428.06205,212.47139 C 428.06205,216.86201 423.18412,217.8376 421.72074,219.30122 C 420.25687,220.7646 415.37894,220.7646 412.4517,221.25239 C 409.52494,221.74018 410.50053,223.69135 410.98832,226.6186 C 411.47611,229.54536 414.89115,228.56977 417.33012,229.05756 C 419.76909,229.54535 418.7935,234.42377 416.35453,237.35053 C 413.91556,240.27729 418.3057,244.18012 420.25687,246.61908 C 422.20853,249.05829 418.3057,251.20306 415.86673,250.22748 C 413.42728,249.25189 413.42777,250.71527 411.47611,252.17865 C 409.52494,253.64203 411.9639,256.08099 408.54935,256.08099 C 405.1348,256.08099 404.64652,258.03241 404.64652,258.03241 C 404.64652,258.03241 404.15922,261.935 403.67093,264.862 C 403.18314,267.789 401.71976,269.25238 399.57523,267.789 C 397.43021,266.32538 396.64798,268.76459 395.18461,270.22796 C 393.72124,271.69133 390.79447,270.22796 388.84281,269.25237 C 386.89164,268.27678 385.91605,268.27678 384.94047,265.34978 C 383.96488,262.42302 382.50151,264.37419 379.57426,264.86199 C 376.6475,265.34954 375.67192,267.3012 375.67192,269.25237 C 375.67192,271.20354 374.20854,274.61858 371.76909,274.61858 C 369.33013,274.61858 368.35454,276.56975 367.86675,279.00872 C 367.37896,281.44769 365.91558,282.91155 363.96392,285.83831 C 362.01275,288.76531 361.64751,294.30437 360.89751,295.80437 C 360.14751,297.30437 356.77251,298.42937 355.64751,296.92937 C 354.52251,295.42937 353.77251,294.67937 352.27251,291.67937 C 350.77251,288.67937 347.77251,289.80437 347.02251,291.30437 C 346.27251,292.80437 337.27251,300.67937 337.27251,300.67937 L 334.27251,304.42937 C 334.27251,304.42937 334.27251,309.30437 334.64751,311.55437 C 335.02251,313.80437 333.89751,315.67937 331.64751,315.67937 C 329.39751,315.67937 329.02251,317.55437 329.02251,319.80437 C 329.02251,322.05437 329.77251,322.05437 332.02251,322.05437 C 334.27251,322.05437 334.64751,323.17937 334.64751,325.42937 C 334.64751,327.67937 336.89751,327.67937 337.64751,329.17913 C 338.39751,330.67913 339.52251,331.80413 339.89751,334.05413 C 340.27251,336.30413 338.02251,338.55413 342.14751,338.92913 C 346.27251,339.30413 345.89751,338.92913 346.27251,341.92913 C 346.64751,344.92913 346.27251,343.42913 352.27251,345.30413 C 358.27251,347.17913 354.89751,348.30413 354.89751,350.55413 C 354.89751,352.80413 353.02251,352.80413 349.27251,352.42913 C 345.52251,352.05413 345.89751,353.92913 345.52251,355.80413 C 345.14751,357.67913 344.39751,359.92913 338.39751,359.17913 C 332.39751,358.42913 334.64751,359.55413 332.39751,359.92913 C 330.14751,360.30413 326.02251,362.17913 325.64751,364.80413 C 325.27251,367.42913 321.14751,369.30413 321.14751,369.30413 C 321.14751,369.30413 318.14751,370.42913 316.64751,372.30413 C 315.14751,374.17913 314.39751,376.05413 314.39751,377.55413 C 314.39751,379.05413 314.02251,380.92913 312.14751,380.92913 C 310.27251,380.92913 308.39751,382.05413 307.64751,383.55413 C 306.89751,385.05413 302.77251,383.55413 302.77251,383.55413 C 302.77251,383.55413 296.77251,380.17913 295.64751,378.30413 C 294.52251,376.42913 290.77251,374.17913 288.89751,374.17913 C 287.02251,374.17913 283.64751,376.05413 283.64751,376.05413 C 283.64751,376.05413 278.39751,377.92913 276.89751,378.30413 C 275.39751,378.67913 271.27251,381.67913 271.27251,381.67913 M 385.1748,1029.8345 C 385.66943,1032.3809 390.84521,1037.874 392.61328,1040.2197 C 393.6084,1041.54 397.47558,1046.2851 399.10254,1046.5063 C 399.51807,1046.563 400.78223,1045.0307 401.15332,1044.6724 C 403.21924,1042.6758 405.78564,1040.8784 407.95996,1038.915 C 409.26416,1037.7368 409.27295,1035.9268 410.32226,1034.7075 C 414.31835,1030.0635 420.67089,1030.7446 424.73681,1034.5884 C 425.45702,1035.2695 426.49316,1037.4839 426.7041,1038.4683 C 426.8916,1039.3457 427.78662,1042.2588 428.55273,1042.6655 C 430.04443,1043.457 445.98193,1034.2085 447.83007,1032.5459 C 448.59081,1031.8613 448.98339,1029.7378 449.66991,1029.4062 C 451.26122,1028.6367 452.60009,1031.0073 454.17333,1029.1973 C 455.22118,1027.9917 454.30712,1023.6777 455.23241,1021.8159 C 457.77929,1016.6963 459.43261,1019.1011 461.37157,1016.9311 C 464.45165,1013.4844 467.12352,1007.1435 470.34569,1003.749 C 471.63866,1002.3872 478.35936,1001.1689 478.19042,1000.0166 C 478.08642,999.3042 469.92968,992.80029 468.48827,991.31006 C 467.38036,990.16455 466.5952,988.75244 465.62694,987.49756 C 459.24266,979.22266 470.35936,982.09473 469.31005,973.81006 C 469.1538,972.5752 463.83788,961.3794 463.10546,960.56592 C 462.44433,959.83203 461.30614,959.2666 460.81982,958.40186 C 460.53076,957.88868 459.95556,953.19239 459.91406,952.3086 C 459.69385,947.6294 461.20019,941.69922 461.6792,936.9712 C 461.84668,935.32716 459.56055,930.31251 460.2041,928.81104 C 461.74951,925.20508 466.56006,921.51319 467.72314,917.60987 C 468.07128,916.44092 463.80029,913.57716 464.91552,910.61622 C 465.24853,909.73243 469.92431,907.85841 470.78808,907.14405 C 471.29003,906.72901 471.66601,906.01368 471.958,905.43995 C 473.11571,903.16993 476.49511,900.26124 478.00536,898.31397 C 478.11034,898.17872 477.30419,897.11426 477.30565,896.76661 L 477.31151,895.00196 C 477.31542,893.96729 480.16942,890.76807 481.08739,890.49024 C 483.42235,889.7837 485.84081,891.58057 486.24657,891.54542 C 490.24169,891.20216 493.83007,890.40089 497.77636,889.88673 C 504.4287,889.01954 503.6748,880.66896 506.37157,880.04249 C 509.01659,879.42823 517.71971,879.77638 520.56981,880.3213 C 522.0576,880.60597 524.45165,881.917 526.07811,881.91066 C 527.29588,881.90578 528.65575,881.1338 529.44237,880.23683 C 530.59178,878.92628 531.0537,877.6421 532.0244,876.39503 C 532.61766,875.63233 540.26366,868.6089 540.30272,868.49366 C 540.78124,867.09815 542.22313,860.94337 542.8037,860.13087 C 544.05956,860.62501 544.83007,861.13526 545.91308,860.75245 C 547.5205,860.1836 552.27148,854.48829 553.96874,853.75636 C 556.79052,852.53956 562.58739,854.79542 566.15331,854.32863 C 567.78417,854.11525 568.75487,852.57668 570.46874,852.2339 C 571.33642,852.06007 572.85448,852.76076 573.35936,852.39161 C 574.13573,851.82423 574.70409,850.89698 575.52245,850.31934 C 575.94481,850.021 576.80419,849.57764 577.29784,849.46875 C 584.09813,847.97363 583.99852,845.70557 586.03563,844.99609 C 586.87987,844.70214 589.03612,844.95605 590.12889,844.80468 L 594.39256,843.61816 C 594.92772,843.20263 594.78416,842.25488 595.18748,841.74707 C 597.16697,839.25195 599.98338,837.57715 601.96092,834.9248 C 602.36131,834.38867 603.99412,835.56396 605.00438,834.43457 C 607.34471,831.81885 608.99657,826.24512 611.35741,823.99414 C 615.15917,820.36816 619.35497,820.4541 623.12108,817.35742 C 626.87938,814.2666 627.90526,810.49463 631.76366,807.64013 C 632.59325,807.02636 634.02636,807.70312 634.94579,807.62695 C 636.18261,807.52441 637.60936,806.8247 638.78515,806.8789 C 639.25976,806.90087 640.04492,808.95849 640.52245,809.47949 C 641.65917,810.71972 642.91698,810.70117 644.47753,810.83642 C 647.47021,811.0957 659.67626,812.64062 661.55273,813.88769 C 663.208,814.9873 662.85595,820.25488 663.21777,821.81005 C 663.67822,823.79101 665.59668,824.39745 666.60547,825.89843 C 667.51904,827.25829 666.34717,828.65673 666.74707,829.47363 C 668.06787,832.1709 670.33105,835.67285 672.83643,837.49414 C 675.12256,839.15137 676.18311,845.78809 677.41065,848.27441 C 679.02979,851.55517 684.98389,855.00537 685.55079,859.1372 C 686.10255,863.15575 684.94044,867.23437 683.97022,871.0371 C 683.89161,871.34521 686.11915,877.15819 686.49268,877.38329 C 689.51709,879.20702 687.33155,881.74315 688.60791,882.62987 C 689.32227,883.12596 691.39258,881.22899 692.47461,881.58299 C 694.52783,882.25389 697.82715,882.72215 699.5957,883.86815 C 700.36279,884.36522 700.86816,885.04686 701.85547,885.04686 C 703.3374,885.04686 705.20459,883.34276 706.84522,883.03758 C 708.5752,882.7158 710.75879,883.7075 711.79395,883.33934 C 713.39649,882.76805 715.95704,877.39745 719.98682,877.39891 C 720.56446,877.39842 723.11866,877.67967 723.37354,877.42674 C 724.08301,876.72362 724.19385,870.03367 726.93506,870.03367 C 733.20703,870.03367 726.06006,878.72019 729.8584,878.57762 C 731.25879,878.52489 737.5791,875.41649 737.35791,873.94725 C 737.34521,873.86327 734.21582,869.3369 734.07031,868.88573 C 733.53027,867.20702 735.12451,867.28612 734.60498,865.81591 C 734.04834,864.2412 732.68457,865.33593 732.37451,864.7456 C 730.06445,860.35058 732.77295,861.93164 728.26074,856.99609 C 727.9292,856.6333 729.23779,855.14257 728.32568,854.07861 C 727.61328,853.24804 724.89453,852.13476 725.09179,850.71191 C 725.25781,849.5122 727.67333,849.92822 728.38427,849.15966 C 729.01415,848.47851 729.43017,846.52636 729.76073,845.5996 C 730.07958,844.70605 734.00341,840.60741 734.89989,839.13476 C 736.14843,837.08398 732.86229,834.74999 734.05126,832.10253 C 736.84276,825.8872 745.63036,822.57958 741.39843,813.79784 C 740.84521,812.64598 741.01952,812.1704 741.48827,811.03905 C 741.70604,810.51317 742.03515,810.03319 742.31249,809.541 C 744.37255,805.88621 745.41649,811.49168 747.05175,810.05467 C 750.24071,807.25096 750.47021,802.9824 752.93798,800.0869 C 755.34081,797.26756 757.09911,798.35692 759.26171,796.54247 C 761.81396,794.40185 761.24901,792.14452 763.01171,789.51073 C 763.54589,788.7119 766.73144,785.76952 766.73144,785.76952 C 767.26415,784.31688 765.11132,782.52489 767.54394,781.61181 C 769.083,781.03417 770.2954,782.71386 771.8164,782.56591 C 773.37304,782.41454 773.7871,780.70898 775.33593,780.59472 C 781.82568,780.1162 782.64501,786.84521 786.82031,790.43652 C 794.29199,796.84375 799.29638,791.1831 796.3164,782.95019 C 795.19579,779.85351 791.52929,778.78466 791.10107,775.06933 C 790.79003,772.37109 795.70947,768.90136 796.708,766.55908 C 797.90234,763.75928 792.98681,762.78222 794.88183,761.17041 C 799.91699,756.8877 799.93847,766.28027 806.59179,763.646 C 810.09814,762.25538 804.14501,756.12061 812.48437,756.76954 C 816.59326,757.08936 815.40039,760.49513 818.06201,762.52735 C 819.76172,763.82471 825.08691,759.43555 827.81933,763.80958 C 828.65624,765.14845 831.11621,769.29298 831.55175,770.70997 C 832.27734,773.07081 833.72851,783.30518 836.14941,784.18311 C 840.82666,785.87989 841.11523,781.93409 844.28808,780.28516 C 847.81738,778.45118 847.29882,783.35547 850.19824,781.98536 C 851.66992,781.29005 851.6582,779.82667 852.63232,778.98829 C 853.86035,777.93067 855.41992,778.47999 856.79394,777.85548 C 859.30175,776.71632 860.23535,771.23146 864.17089,770.33155 M 385.12793,1029.8345 C 385.12793,1020.9443 378.69141,1011.6006 376.00879,1002.9033 L 379.99365,1002.9985 C 384.47949,999.65136 383.1831,991.57324 391.32568,994.7539 C 392.37158,993.22949 392.25244,991.69726 394.11474,990.53906 C 394.79247,990.11718 396.07812,989.69775 396.50439,988.99365 C 399.21582,984.51123 402.37011,967.32422 399.55957,962.86181 C 397.02246,958.83447 394.47021,959.0122 392.47656,952.51025 C 391.91699,950.68505 392.9414,948.5708 392.43213,946.65673 C 392.00635,945.05663 389.33936,935.59814 388.89649,934.81054 C 388.43116,933.98437 386.71876,933.03466 386.61622,932.48144 C 386.46827,931.68408 385.88331,921.38964 386.26124,920.54052 C 383.59669,912.51659 374.4922,907.45409 373.9546,906.54345 C 372.80665,904.59667 371.70802,902.14404 370.57228,900.07372 C 369.20998,897.59032 369.15578,896.26854 368.38966,893.83349 C 368.04445,892.73632 366.59181,891.85742 366.50294,890.65038 C 366.3462,888.52684 371.75538,884.19481 371.55567,880.43749 C 371.49317,879.26561 368.10255,875.63378 368.74463,873.59374 C 369.40039,871.51122 372.9668,866.81835 372.83301,864.4619 C 372.65576,861.34276 367.36475,854.63085 366.65967,851.3159 C 366.32666,849.74998 368.74805,848.36961 368.19385,847.28123 C 367.45996,845.8408 361.89844,840.39744 360.99805,838.77342 C 360.33155,837.57127 363.11035,835.9824 361.09571,833.77928 C 359.29639,831.81102 360.81885,832.48387 360.25098,830.82616 C 359.60645,828.94286 357.66455,827.23241 356.86914,825.20995 C 356.19482,823.49608 351.33935,804.7119 351.50146,803.61815 C 350.65673,802.2871 349.2705,801.17772 348.57275,799.91698 C 347.82763,798.57128 347.58593,796.15624 346.93994,795.13134 C 346.85351,794.99413 341.5166,793.32909 340.49219,791.65917 C 339.65869,790.30077 339.45801,785.65966 338.09278,783.35741 C 337.417,782.21825 336.33546,782.41503 335.49122,781.70165 C 334.75684,781.08056 334.88966,780.00976 334.39747,779.26122 C 332.84132,776.8955 329.63966,779.04589 327.43702,770.21239 C 324.54835,767.99266 321.8545,766.11229 319.29737,763.4536 C 318.82764,762.96483 318.50196,762.34813 317.86182,762.04003 C 315.90479,761.09765 312.89063,760.87206 311.1587,759.27196 C 310.13184,759.30712 304.90528,759.07225 304.21729,758.66796 C 303.58692,758.29784 302.97852,755.74218 302.64502,755.67284 C 299.82568,755.08739 295.26074,755.40233 292.87354,753.17577 C 290.9961,751.42528 290.61719,742.67431 287.21094,743.85839 C 286.83692,743.6245 286.27637,743.47411 285.83448,743.54638 C 283.66895,740.4707 276.00001,740.04296 272.95655,738.05468 C 272.09473,737.4912 269.15137,737.9746 269.18214,737.09716 C 269.83253,735.43847 269.71437,734.00439 269.73292,732.27343 C 268.00343,730.43505 266.9712,728.37695 265.70216,727.09325 C 262.80665,726.36327 263.9463,726.06395 262.10353,724.84618 C 257.11525,724.45653 256.55665,725.38085 253.43312,728.58983 C 252.65529,729.38915 251.05226,729.5703 250.05226,730.17088 C 248.39113,731.16795 247.82619,734.47801 245.47169,732.93846 C 244.70362,732.43651 244.19288,731.6284 243.52442,731.02489 C 242.11426,729.75096 241.28077,730.40917 240.59473,728.07128 C 236.52393,725.65673 225.22315,733.9873 222.4878,728.17431 C 220.56641,727.05126 219.17676,728.45019 217.57227,726.69872 C 216.75635,725.80761 219.72559,715.75829 211.57569,711.74218 C 213.46876,710.10204 215.46192,709.05273 217.25831,707.56054 C 217.74171,706.48339 217.19679,704.80956 217.1797,703.69091 C 217.1548,702.01464 218.22169,698.73534 217.84816,697.45116 C 217.49855,696.25096 216.36134,695.21434 215.90138,693.89598 C 215.40529,692.47459 215.99025,690.74559 215.33204,689.15233 C 214.78272,688.76073 213.37794,687.72167 212.71632,687.73827 C 210.6338,685.87352 208.30665,684.60546 206.64747,682.35741 C 206.27735,681.85546 205.92823,680.93358 205.43409,680.55175 C 203.92335,679.38378 199.01514,677.76659 199.26417,675.21972 C 199.3462,674.38085 200.37257,674.27831 200.6211,673.50146 C 200.94678,672.48486 200.75635,671.16992 201.38233,670.25878 C 203.68604,666.90722 208.81153,668.32421 207.94385,662.03222 C 207.56201,659.26269 205.78858,656.8374 205.25,653.87304 C 204.34668,653.18993 204.20898,652.01366 203.43945,651.23925 C 198.41064,650.77148 199.12451,645.14892 197.33056,643.8203 C 192.06933,639.92333 187.958,642.33446 193.83447,634.63671 C 194.61523,632.16454 188.76709,628.09862 187.49951,626.75878 C 185.39258,624.53222 186.42187,619.93163 185.64844,617.53124 C 185.26172,616.33007 181.78272,614.2539 180.6709,612.54979 C 180.3252,612.02049 179.42481,609.46434 178.94336,609.17577 L 179.04639,608.3579 C 180.18701,607.40917 179.54346,605.6997 179.22803,604.46776 C 178.53125,603.73143 177.02491,603.92674 176.55078,603.45897 C 171.73633,598.71092 165.92334,596.70116 159.66748,593.99999 C 157.96045,593.2622 158.44629,591.84813 157.05225,591.1206 C 155.896,590.51757 147.38477,586.46191 146.7334,586.60644 C 145.72559,586.32812 145.00977,582.21191 144.35205,580.89013 C 143.77685,579.73437 141.34863,577.51562 141.34863,577.38378 C 141.51953,573.63329 139.354,573.11327 136.6709,571.09521 M 271.13721,384.17188 C 269.96533,384.27686 269.73047,383.74488 268.83643,383.54517 C 268.0503,383.36963 266.04102,383.86304 264.96045,383.75391 C 263.94238,383.65088 263.85254,382.07911 262.98926,381.70313 C 261.53223,381.06885 259.81494,381.48438 258.22608,381.49415 C 257.48975,381.89161 252.96583,385.47291 252.70655,386.04737 C 252.34669,386.84376 253.22217,388.02491 253.1338,388.27369 C 252.69484,389.51099 249.14747,391.88429 247.81153,391.71436 C 247.18262,391.93946 246.92823,392.99122 246.30079,393.13916 C 245.61475,393.30029 241.34962,390.53955 240.94581,389.90625 L 239.66456,387.64697 C 239.37892,387.55908 237.93263,387.81054 237.56202,387.85547 C 231.18751,388.63428 228.6753,394.70215 221.56251,395.36231 C 219.83497,396.35059 219.56349,398.7334 218.31056,400.16065 C 217.4424,401.14942 215.5005,401.87452 215.02492,402.52344 C 214.51271,403.22266 215.63088,405.31153 215.41945,406.20703 C 215.37306,406.40332 211.95754,411.68213 211.73976,411.93066 C 210.1299,413.76855 207.16749,414.38183 204.93947,415.20996 C 204.08205,415.52832 202.10549,414.521 202.04836,414.89551 C 201.93752,415.62647 204.10305,423.10401 204.48,424.13086 C 204.54152,424.29883 206.14553,427.13379 204.67678,426.78223 C 203.70998,426.52979 200.78323,423.3125 199.65041,423.65625 C 197.76174,424.22852 195.84475,436.4248 195.6426,436.4458 C 191.68752,436.85547 191.501,435.50342 188.54592,435.02148 C 187.89211,434.91503 187.01321,437.19091 186.04934,437.00293 C 185.27053,436.85107 184.08694,436.03564 183.25686,435.75195 C 182.47854,435.48584 175.54104,436.88818 174.22268,437.19873 C 173.41897,437.38769 171.77737,437.83398 171.03567,437.48828 C 166.87942,435.54834 163.31155,431.6333 158.91311,430.67773 C 154.61086,429.74218 157.26809,434.17285 152.73782,431.54443 C 151.21096,430.6582 150.93118,428.2749 149.18899,427.23632 C 147.88577,426.45898 139.96194,424.57079 137.69094,423.62011 C 134.53078,422.29687 132.07619,419.36816 130.39797,418.61523 C 128.79738,419.1455 125.25344,419.56543 124.05764,420.49023 C 119.48635,424.02636 121.30032,427.12548 113.51125,428.90283 L 111.96804,428.4873 C 110.96389,428.80371 109.72463,429.07519 109.07619,429.98144 C 108.20021,430.31933 107.15578,429.62744 106.35012,429.39013 L 105.5945,429.63281 C 105.25856,431.00976 104.02468,433.12353 103.62306,433.94336 C 99.3921,442.58496 94.59572,435.09766 91.5337,444.44238 C 91.24342,445.32861 90.22657,445.94238 90.08839,446.875 C 91.69752,448.0918 92.26442,449.78174 94.06251,450.83789 L 94.29298,451.46435 C 93.69557,453.2915 92.46925,455.9165 92.6836,457.8955 C 92.77833,458.77148 93.66041,459.54198 93.34058,460.46728 C 92.40235,460.55615 85.96631,461.64892 85.71851,462.83007 C 85.61817,463.30761 88.87622,467.12792 87.95264,468.60107 L 87.42725,469.01904 C 87.28687,469.28418 87.47242,469.71826 87.72315,469.85205 C 88.65357,469.87402 90.87061,469.70654 91.50049,470.51221 C 92.82276,473.96778 90.89453,479.18946 96.16577,480.56006 C 97.37622,480.87451 98.65991,480.29834 99.61523,480.59375 C 99.50634,481.51172 98.3059,483.91211 99.12255,484.5918 C 105.4829,486.83789 103.34936,484.29151 106.18505,485.21631 C 108.2976,485.90527 108.26903,487.52979 110.91601,487.37305 C 114.90136,487.13623 117.60937,485.78076 121.82324,486.78223 C 124.8999,487.51368 128.54199,493.02442 131.74512,495.05518 C 133.44434,496.13282 135.87696,496.3086 137.72412,497.06934 C 139.15674,497.66016 140.99902,498.73291 142.55371,498.91407 L 143.11182,499.46876 C 143.08741,500.15284 143.8042,500.75001 144.16309,501.27735 C 145.5542,501.57471 147.32715,502.96778 147.8169,503.04444 C 149.25391,503.26807 150.66602,502.79102 152.04102,503.7251 C 152.53809,504.75 151.64014,507.23731 151.03858,508.01514 C 150.29883,508.97168 146.27442,511.29297 144.89014,512.47559 C 143.0127,514.07911 142.06739,519.16065 140.56641,521.31348 C 140.0542,522.04737 137.59082,523.51416 136.66407,524.43799 C 136.52833,524.57276 135.6836,525.58838 135.83985,525.7168 C 134.41602,527.57959 135.04639,528.74805 134.68555,530.88623 C 132.96582,541.07519 136.17969,540.0249 138.90137,547.8501 C 139.66895,550.05615 139.94873,553.96875 140.35157,556.4585 C 140.60645,558.03223 138.92188,559.34131 138.44532,560.7793 C 138.14796,561.67774 136.3672,568.292 136.37696,568.76319 C 136.39063,569.39551 136.85889,570.55274 136.67091,571.09522" />
</g>
</svg>
