<?xml version="1.0"?>
<svg xmlns="http://www.w3.org/2000/svg" version="1.2" baseProfile="tiny" width="800" height="71" viewBox="0 0 800 71" stroke-linecap="round" stroke-linejoin="round">
<g id="UM">
<path d="M 19.23 29.82 19.25 29.82 19.26 29.82 19.25 29.83 19.23 29.83 19.22 29.83 19.21 29.84 19.21 29.83 19.22 29.83 19.23 29.82 Z M 41.27 70.14 41.31 70.13 41.31 70.15 41.28 70.16 41.27 70.14 Z M 3.1 68.81 3.11 68.8 3.12 68.8 3.12 68.81 3.11 68.82 3.1 68.81 Z M 3.16 68.74 3.16 68.75 3.15 68.75 3.16 68.74 Z M 2.75 67.43 2.74 67.4 2.74 67.39 2.75 67.4 2.75 67.43 Z M 798.92 23.67 798.95 23.67 798.97 23.66 798.97 23.64 798.96 23.61 798.99 23.63 799 23.66 798.98 23.69 798.92 23.67 Z M 1.14 1.01 1.15 1.02 1.16 1.02 1.15 1.03 1.13 1.03 1.14 1.01 Z M 1.07 1 1.06 1.02 1.04 1.03 1.02 1.04 1 1.05 1.01 1.02 1.03 1.01 1.05 1 1.07 1 Z M 19.22 29.89 19.25 29.89 19.2 29.91 19.19 29.92 19.18 29.91 19.19 29.9 19.22 29.89 Z M 238.43 25.79 238.44 25.79 238.47 25.79 238.48 25.8 238.48 25.81 238.48 25.82 238.48 25.84 238.47 25.84 238.46 25.84 238.45 25.84 238.45 25.83 238.44 25.83 238.44 25.82 238.44 25.81 238.43 25.81 238.42 25.8 238.42 25.79 238.43 25.79 Z M 36.55 55.58 36.56 55.59 36.55 55.62 36.53 55.62 36.48 55.62 36.48 55.61 36.49 55.61 36.49 55.6 36.52 55.59 36.51 55.59 36.5 55.59 36.49 55.59 36.48 55.59 36.46 55.59 36.46 55.58 36.53 55.58 36.55 55.58 Z M 35.77 54.28 35.8 54.28 35.8 54.32 35.77 54.32 35.77 54.28 Z" fill-rule="evenodd"/>
</g>
</svg>