<svg xmlns="http://www.w3.org/2000/svg" viewBox="0 0 1000 1000" fill="currentColor" fill-rule="evenodd">
  <path d="M473.77 502.51L477.56 508.07L477.49 527.85L481.71 533.08L497.68 545.53L509.32 549.08L530.16 559.49L536.83 560.58L975.3 560.53L977.82 573.16L980 944.97L549.49 943.54L533.46 945.61L530.5 964.51L526.62 968.29L521.37 969.45L509.69 966.08L490.25 948.24L475.35 945.24L475.41 937.86L472.89 929.44L473.61 925.53L480.45 921.99L489.56 920.82L483.56 917.72L471.36 915.47L459.13 909.79L445.62 912.7L442.11 911.81L440.77 908.51L442.22 904.96L446.83 900.78L440.72 903.35L433.21 909.96L421.9 924.4L402.87 930.54L399.92 926.65L392.09 906.66L383.24 900.78L377.24 899.36L358.61 904.08L348.87 908.72L343.89 909.79L340.99 907.96L329.04 896.27L328.85 890.38L324.59 884.83L329.73 882.71L333.59 878.83L344.64 851.17L353.43 845.93L358.04 839.56L363.24 826.13L362.39 813.51L363.67 808.11L372.73 804.14L385.71 792.37L396.24 778.83L406.14 756.17L412.89 750.94L427.53 758.42L436.32 757.26L455.62 746.98L448.97 747.32L435.52 756.43L429.67 755.04L415.38 741.47L410.43 732.35L413.8 723.45L433.16 704.24L437.61 697.49L446.94 690.38L455.14 675.9L456.37 667.93L461.95 659.29L473.61 647.76L477.12 636.6L475.84 622.95L462.19 583.41L466.69 574.3L469.43 533.38L468.46 525.95L463.02 512.81L467.26 507.08ZM184.92 37.71L196.93 54.18L197.73 67.5L194.3 78.41L191.65 82.77L179.75 93.37L176.37 102.5L164.49 116.57L157.9 134.3L152.22 138.81L149 149.45L139.53 155.09L138.22 175.6L136.16 181L121.36 198.08L107.02 220.34L94.58 212.85L92.49 213.73L87.72 212L78.57 206.91L65.3 209.36L54.8 203.34L35.6 200.33L29.28 195.39L25.15 182.13L20 173.49L26.62 146.43L30.94 138.11L37.08 132.65L44.88 134.81L49.06 132.41L66.35 134.81L71.9 132.57L73.72 127.29L72.78 121.21L69.81 116.57L79.08 110.65L85.57 102.03L87.82 71.5L92.11 59.89L100.74 45.78L112.35 34.34L125.86 30.55L123.8 35.24L134.04 37.39L138.54 37.63L141.79 35.24L159.88 39.13L171.06 38.84L180.23 35.24L182.24 37.24Z" />
</svg>
