<svg xmlns="http://www.w3.org/2000/svg" viewBox="0 0 1000 1000" fill="currentColor" fill-rule="evenodd">
  <path d="M320.41 175.74L322.13 177.37L325.71 177.37L326.71 172.11L328.86 174.11L331.73 174.11L333.02 181.18L331.3 188.24L333.02 195.3L334.88 193.13L333.02 185.71L335.17 183.53L334.31 174.11L333.02 173.92L333.74 167.94L336.17 167.94L333.02 167.21L333.02 163.04L334.88 162.13L334.74 164.67L336.17 164.67L337.18 161.59L340.76 161.59L340.76 158.32L339.33 158.32L339.33 160.32L335.6 161.04L335.46 148.52L332.88 144.52L332.88 140.16L340.19 140.7L348.64 136.16L350.08 133.06L354.09 131.97L357.24 126.33L359.54 125.24L362.98 113.59L365.41 114.32L371.43 108.12L375.02 107.76L375.73 106.12L372.72 103.75L375.02 101.74L374.73 97.91L378.03 93.54L380.03 93.17L386.05 85.33L388.2 85.51L391.07 82.04L396.09 79.85L399.1 75.28L401.82 76.93L414.72 71.99L423.03 75.47L427.48 74.73L430.06 72.54L432.06 73.46L435.21 71.08L452.56 77.66L462.3 71.63L468.32 71.63L468.61 73.27L470.9 73.64L478.79 73.46L480.36 71.08L482.51 72.54L486.38 70.35L490.25 71.45L491.97 68.89L493.69 75.28L494.27 73.64L497.85 77.11L506.02 74.73L506.45 72.18L516.77 75.47L521.36 74L532.25 76.56L539.7 70.9L542.71 71.81L549.31 68.16L562.49 55.17L567.22 45.11L566.94 40.71L568.37 38.7L567.94 24.04L574.96 20L582.27 31.19L583.7 39.98L590.3 50.42L588.58 51.33L589.15 54.26L596.75 64.5L596.89 69.25L602.34 77.29L603.63 85.51L609.65 93.36L609.79 95.18L607.07 93.17L605.35 95.36L608.36 95.36L606.21 97.37L608.36 97.55L609.5 95.73L611.37 99.56L610.79 104.66L609.5 104.84L610.79 104.84L615.95 113.04L612.51 119.6L615.38 116.87L616.1 113.22L620.83 118.14L619.82 117.96L620.11 119.96L622.4 123.24L628.85 128.52L628.14 131.25L632.87 136.16L632.72 138.7L637.02 145.06L642.33 149.61L644.91 158.32L646.48 158.32L649.49 163.59L664.97 179.18L663.83 181.9L664.83 179.36L675.01 191.86L673.29 198.74L676.01 200.92L674.43 201.28L683.18 208.33L684.32 212.13L683.03 216.11L686.04 222.25L688.19 223.52L686.19 222.43L684.47 224.78L687.48 223.7L686.9 224.6L692.49 229.66L695.07 238.32L701.52 244.46L703.53 244.64L702.67 247.88L705.11 254.91L709.55 257.44L709.83 260.5L713.85 262.84L713.7 265.72L717.72 270.95L715.57 272.57L716.86 283L715.57 284.44L717.29 283.72L720.44 288.76L721.16 295.41L728.32 302.77L726.17 303.67L725.31 308.34L726.75 312.11L725.17 316.78L727.03 324.31L726.17 333.09L728.04 340.08L731.62 344.74L730.47 344.02L735.35 354.76L733.77 356.73L735.06 367.1L732.19 371.93L732.48 370.14L729.33 372.28L725.74 380.86L726.03 391.39L726.75 392.28L727.46 390.5L729.33 392.28L730.33 400.49L731.62 401.2L728.75 406.02L728.18 418.84L723.02 428.28L721.16 427.57L722.59 428.1L720.15 446.24L722.3 452.29L720.01 456.55L723.59 460.99L723.16 466.14L724.6 469.15L729.76 471.64L728.47 471.64L729.76 471.82L729.61 474.3L728.32 473.59L726.6 478.38L721.73 480.33L721.87 483.34L720.15 482.46L720.44 489.01L719.29 489.01L720.44 492.2L721.59 489.01L719.87 484.94L720.58 482.63L721.87 486.53L724.17 484.58L728.47 486.18L725.17 486.18L722.88 489.37L727.18 489.19L727.46 487.6L725.89 490.96L727.46 489.72L727.03 491.32L731.48 493.09L738.79 486.89L746.38 476.25L748.39 477.67L750.4 483.34L749.39 487.06L750.54 488.48L747.96 493.27L745.95 493.8L747.1 493.97L745.24 500L741.08 504.07L743.23 509.2L741.08 513.98L743.37 514.51L739.65 522.64L740.08 525.82L737.21 529L737.64 535.19L736.06 536.95L735.78 543.13L734.49 543.48L735.2 546.13L730.04 554.25L730.33 557.77L733.2 562.36L733.2 564.83L731.62 565.88L731.76 575.22L729.61 574.69L729.61 576.45L731.33 575.4L731.05 578.39L728.75 577.86L728.61 578.92L730.04 578.39L728.61 580.85L730.62 581.38L724.88 584.73L725.31 581.03L723.45 579.62L722.3 575.04L717.86 571.35L721.44 575.4L720.15 575.57L722.45 579.45L717.43 578.39L722.73 582.26L718.72 586.84L720.15 588.42L714.99 584.38L716.86 588.95L718.29 588.42L717.57 590.71L719.58 588.77L721.01 589.48L719.58 588.77L719.87 591.94L717.29 592.64L718.72 593L718.72 595.81L716.14 601.79L718.72 604.6L714.71 605.3L709.55 611.8L706.97 609.87L704.1 612.33L704.1 617.95L700.23 621.64L702.81 621.99L702.96 624.45L700.09 629.89L699.23 628.31L698.94 634.97L695.36 636.2L694.07 639.88L687.05 640.41L683.61 633.92L682.17 633.92L686.04 640.23L683.61 640.76L682.32 644.26L683.61 644.44L682.89 645.67L684.04 644.09L685.18 646.89L684.47 650.22L682.89 649.52L681.03 651.62L680.02 648.47L676.3 648.65L677.3 647.07L676.15 644.79L674.72 646.89L674.29 645.49L674.29 647.77L670.42 650.92L671.14 652.5L669.13 654.43L668.99 658.28L667.98 658.63L667.41 652.85L665.69 652.85L667.7 658.98L665.55 659.68L664.97 657.4L662.82 657.58L664.26 659.33L662.39 659.33L663.54 660.55L661.82 661.95L659.67 653.73L660.67 653.38L659.53 653.2L661.39 649.17L659.38 648.82L658.09 653.2L657.09 650.92L658.52 649.7L657.09 648.29L654.08 653.55L651.64 653.73L653.22 646.89L651.64 646.19L650.07 653.73L647.92 653.2L648.2 651.97L643.62 653.2L641.18 650.4L638.46 651.8L641.32 651.1L643.04 652.32L643.47 658.1L644.91 656.53L643.47 654.43L646.48 656.35L644.62 657.05L645.19 661.78L643.04 664.93L643.76 668.08L642.04 669.48L640.61 666.86L641.9 665.11L638.74 663.35L640.32 662.83L637.6 658.8L639.03 657.58L636.74 658.28L636.74 656.7L642.61 655.13L642.61 653.9L635.3 653.9L636.59 650.92L638.31 650.75L636.31 650.4L636.16 646.02L636.45 647.77L634.16 650.22L628.71 649.7L627.85 651.8L625.7 650.92L625.7 648.82L622.98 650.57L621.69 648.82L623.84 647.07L622.4 641.11L619.54 642.69L620.54 645.49L618.82 646.72L617.82 643.56L615.67 643.74L616.1 641.28L612.94 641.64L612.08 643.74L613.52 644.26L610.36 643.39L611.51 642.34L610.94 639.01L609.07 638.66L607.78 633.39L610.22 630.76L607.07 630.24L604.34 635.32L608.07 639.88L607.21 641.99L609.07 642.69L607.5 644.79L606.35 643.21L605.2 644.26L609.36 644.44L607.35 646.54L609.22 646.72L609.5 649.7L613.23 652.85L609.79 654.43L614.38 655.48L605.63 658.1L608.93 655.3L604.06 655.83L604.2 653.2L606.92 651.62L601.62 651.27L600.47 646.54L597.61 650.4L592.88 647.94L591.44 650.4L588 649L587.57 650.75L592.02 653.2L591.59 654.25L590.87 653.2L589.44 654.95L586.28 654.95L584.71 657.93L582.84 657.93L582.99 656.53L578.26 659.5L575.53 659.33L578.11 661.25L576.25 662.13L577.11 663.53L574.96 666.16L575.82 664.23L579.12 664.58L580.12 660.73L587.86 658.63L587.14 655.83L588.29 655.13L589.44 656.53L590.58 654.25L592.45 658.45L589.15 659.33L591.16 661.43L593.02 660.9L592.3 662.48L595.31 664.93L593.74 666.68L592.59 665.81L592.02 668.78L589.87 667.9L590.3 669.65L581.7 668.43L581.84 670.53L587 671.4L584.28 677.87L585.85 679.62L583.27 683.29L583.7 689.76L585.42 689.06L585.28 687.14L587.29 686.96L587 682.59L591.59 686.79L590.3 690.11L588.72 688.19L588.15 694.48L585.57 694.65L586.71 695.35L585.14 696.05L584.28 694.65L581.98 696.57L586.57 697.62L586.71 701.98L585.57 700.59L585.14 702.16L586.43 703.38L583.42 703.9L585.85 706L584.13 709.14L580.26 708.61L578.4 703.03L577.11 704.43L575.53 703.21L576.68 701.98L577.54 702.86L577.83 700.06L574.67 697.97L571.52 699.54L570.66 697.97L574.1 695.17L574.39 697.1L577.68 697.44L578.69 700.24L578.4 697.44L579.4 698.49L581.84 696.57L580.12 697.44L576.39 693.78L578.4 691.68L583.27 692.21L583.56 691.16L578.83 690.63L577.4 686.61L577.68 688.01L576.25 687.49L577.11 690.28L574.39 690.11L573.38 687.14L573.24 689.76L572.09 688.01L570.37 689.24L570.37 687.49L567.65 687.66L566.08 685.22L567.51 683.47L574.39 683.64L573.67 680.85L571.38 681.37L572.95 679.27L572.67 678.05L571.52 678.75L572.24 676.65L570.52 676.65L570.95 675.08L568.51 674.9L569.37 677.35L566.36 678.75L566.51 682.77L563.78 682.25L562.49 685.04L562.92 683.12L561.49 682.94L560.34 679.8L561.78 679.8L561.78 678.05L558.62 678.75L557.76 676.83L557.33 678.05L555.33 677L551.46 678.57L552.32 686.09L550.31 686.09L550.31 683.99L549.59 685.92L548.45 683.64L548.59 685.92L546.58 685.22L545.72 683.47L542.43 687.14L539.7 683.47L537.98 685.04L539.27 684.52L538.13 681.72L540.71 681.02L536.98 680.5L535.26 682.25L535.98 680.5L532.97 681.02L533.68 680.32L529.1 678.05L527.66 674.9L530.67 672.8L528.81 667.38L530.67 664.76L528.38 663.53L529.53 656.18L532.25 653.73L531.1 653.2L527.95 655.48L526.23 662.65L524.22 661.78L526.09 660.38L525.51 658.28L524.51 659.33L525.51 660.55L521.36 659.5L520.07 661.43L522.93 660.9L524.51 665.46L525.94 665.81L524.51 670.7L522.93 668.25L520.93 671.75L518.06 668.43L515.77 670.35L516.63 671.75L515.48 671.4L513.62 668.95L515.34 667.55L510.89 664.23L512.33 666.68L511.75 670.7L510.03 670.53L510.75 672.45L509.17 672.45L508.46 675.43L506.59 675.43L505.02 677.7L508.17 676.83L512.76 678.05L512.61 686.44L509.17 687.84L508.74 690.11L511.47 696.22L515.34 697.44L515.34 700.94L518.49 700.94L517.34 700.06L521.93 696.75L527.81 696.57L528.81 699.19L530.53 697.62L532.97 699.36L530.39 705.82L531.82 710.88L528.38 714.72L528.38 716.29L532.11 718.38L530.1 718.21L529.81 719.6L526.09 719.43L527.09 716.81L525.8 715.77L524.37 718.03L521.79 716.46L521.07 718.38L517.2 718.38L515.34 711.93L516.2 706.52L509.6 708.44L510.75 713.67L507.74 716.12L503.01 715.24L502.29 711.58L500 711.23L500.57 708.27L503.01 706.52L501.72 706.87L502.44 705.65L501.15 706.17L499.71 703.9L499.14 701.29L500.43 701.29L497.13 697.62L495.84 692.38L498.85 687.49L500.29 687.49L498.14 686.09L498.42 684.52L503.87 684.52L501.86 682.25L504.87 676.83L501.43 676.83L500.57 674.03L497.99 677.7L497.28 676.48L496.99 678.22L494.12 677.87L493.69 674.2L492.69 678.05L490.54 671.75L488.82 671.75L489.82 672.63L485.67 675.43L485.24 670.7L483.52 669.65L484.81 675.43L479.79 681.72L476.35 679.62L479.36 682.07L476.49 684.34L475.35 681.02L474.49 682.42L476.21 684.52L471.62 687.84L469.61 684.69L474.06 683.47L469.33 684.17L466.03 675.78L465.89 680.32L463.16 681.2L462.45 684.52L463.74 683.82L463.16 681.72L465.17 682.07L468.04 686.44L464.6 689.41L466.6 693.08L467.75 692.38L467.32 693.78L471.19 694.3L469.9 695.35L471.19 697.62L474.92 694.65L476.06 696.05L479.65 691.16L483.37 692.38L485.38 691.33L484.23 692.03L486.67 693.6L489.68 691.16L488.25 691.68L491.11 691.86L491.97 693.43L490.68 693.25L492.12 694.82L490.11 697.1L490.25 702.51L488.82 702.33L486.81 706.35L489.11 711.06L487.24 711.58L488.39 712.8L490.11 711.06L490.25 712.28L485.09 713.15L484.81 715.07L480.79 716.46L475.06 710.01L471.05 716.64L472.19 718.91L469.61 716.81L468.04 718.73L470.04 720.65L469.33 722.22L471.62 722.74L468.47 722.91L470.76 725.18L470.33 728.84L472.19 728.67L470.33 730.76L472.34 732.67L464.45 728.32L462.45 729.01L463.31 731.98L459.44 727.27L459.15 725.35L460.87 724.31L458.86 723.09L459.29 721.17L460.3 719.95L463.31 721L460.73 718.38L459.29 719.78L459.01 716.46L465.17 711.41L463.74 711.06L463.88 708.27L462.02 709.49L462.02 706.87L460.15 706.52L462.16 705.65L459.87 701.29L454.99 700.76L457.86 695.17L454.85 694.82L453.56 687.14L453.7 688.89L450.26 689.58L450.69 694.3L449.4 695.7L446.97 694.65L443.1 696.22L442.52 694.3L442.09 696.57L437.51 698.14L430.63 695.52L436.22 699.89L441.38 700.06L436.65 703.03L435.36 706.7L431.63 705.65L437.79 708.09L433.49 712.8L436.36 716.64L435.93 719.08L436.93 718.38L440.8 721.35L441.38 724.48L444.39 724.83L443.81 726.57L445.68 725.35L446.97 726.75L446.39 725.01L448.4 724.83L447.97 727.97L450.26 730.06L448.4 728.84L447.25 730.23L446.54 728.84L445.96 730.23L450.69 731.1L452.84 738.59L448.26 741.9L445.68 738.77L443.67 741.38L442.24 739.46L437.36 739.46L436.93 736.85L434.64 737.9L430.77 744.16L436.5 740.51L438.65 741.03L436.93 744.16L432.92 744.16L442.81 746.08L441.23 747.47L442.38 748.69L440.52 749.56L441.81 752.52L439.23 751.12L437.65 754.08L435.93 753.04L434.21 754.08L436.07 756.86L434.93 758.43L431.77 756.17L430.48 758.08L428.77 756.86L429.34 758.08L426.62 758.78L428.34 760.51L425.33 761.04L428.34 762.25L428.62 764.34L423.89 763.82L425.33 762.6L424.47 761.38L423.32 762.25L423.18 759.82L418.3 757.73L420.6 755.12L416.73 751.12L413.14 751.65L411.85 748.34L409.7 750.43L410.42 751.82L407.98 749.21L405.69 749.38L404.54 751.47L403.97 750.25L397.66 750.08L396.09 746.77L401.39 737.37L404.54 738.42L404.83 732.67L407.98 729.36L408.27 731.63L411.85 734.24L413.72 731.63L412.43 726.57L416.01 717.86L420.31 716.81L420.88 726.75L425.9 725.18L427.62 718.73L429.34 718.38L427.76 717.34L426.9 710.88L423.61 711.23L422.03 714.55L418.16 711.76L416.3 712.63L415.29 709.31L409.99 713.32L406.84 720.65L400.53 721.35L398.38 718.91L393.94 725.7L389.49 726.23L386.91 731.1L382.04 733.02L382.18 735.46L381.9 733.02L375.02 733.02L374.01 730.23L374.01 732.67L379.17 733.37L381.32 735.98L377.02 742.08L381.04 742.77L380.46 745.21L378.46 744.16L378.6 747.99L374.87 755.3L377.02 757.39L377.02 759.82L375.45 758.6L373.44 759.99L370.72 754.78L372.58 762.43L369.28 763.99L367.71 762.25L364.7 762.43L364.84 760.86L364.41 762.43L361.54 762.43L363.55 768.34L357.96 763.3L352.37 763.47L352.51 760.34L349.36 760.17L350.94 758.25L349.79 748.69L351.65 745.73L350.22 746.43L350.79 743.12L348.07 734.59L349.65 730.76L353.66 731.1L349.5 730.41L348.36 733.54L346.78 733.89L346.21 748.86L347.5 750.25L345.49 750.25L343.63 752.86L345.63 753.04L345.63 751.65L346.49 754.95L342.62 757.21L344.92 759.65L342.05 762.6L343.34 760.34L336.32 759.82L339.47 759.99L341.19 763.82L342.05 762.6L340.62 764.86L333.16 767.47L333.74 769.38L331.87 767.47L329.87 768.16L329.29 770.59L325.14 771.64L325.57 779.28L322.84 781.01L324.28 782.4L322.56 783.44L323.56 786.92L316.97 785.7L311.95 790.91L310.52 788.48L310.23 786.05L312.24 784.14L311.38 779.1L309.37 778.06L310.23 776.85L305.07 781.19L303.35 778.76L304.78 779.97L304.93 778.24L306.5 778.24L304.64 776.15L305.64 775.11L304.21 774.94L308.22 774.42L306.5 770.77L309.08 771.29L312.52 769.38L309.66 767.99L309.51 765.21L306.07 766.25L305.79 767.64L301.77 763.82L305.21 763.47L304.78 761.91L303.78 762.43L304.21 759.99L302.06 758.78L303.49 757.39L302.06 754.6L307.22 750.43L310.37 744.16L302.2 751.47L300.2 750.08L302.63 749.21L299.05 748.69L299.19 746.08L296.47 744.16L296.61 746.6L292.03 749.21L291.02 747.99L292.46 744.34L288.73 744.51L284.58 742.08L281.71 743.29L280.28 741.38L281.57 739.64L279.56 739.12L279.56 737.2L278.56 738.77L276.26 738.07L278.41 731.63L282 731.63L279.56 730.06L276.55 732.15L273.97 730.41L275.26 729.36L273.11 723.61L274.54 721.87L273.97 719.08L275.69 719.6L276.98 717.16L275.98 715.07L277.12 710.53L279.56 709.14L280.85 711.58L282.57 711.23L284.15 716.29L286.73 718.21L287.01 720.47L285.44 720.65L285.01 722.74L290.31 735.46L291.17 734.24L300.48 739.29L304.5 736.16L299.91 737.9L299.34 735.98L298.48 737.2L297.9 736.16L300.2 734.59L298.48 735.81L296.9 734.24L297.76 733.54L296.33 734.41L294.75 733.02L297.47 730.93L294.89 731.63L294.75 729.19L297.47 727.27L294.46 729.19L296.18 726.92L295.18 727.62L293.46 732.85L291.74 730.58L293.6 730.58L293.03 729.36L290.74 730.06L288.73 725.88L291.45 722.04L292.89 724.31L291.6 721.69L291.74 719.78L292.89 720.13L290.31 718.03L292.17 714.72L295.9 719.25L295.75 717.34L299.34 718.21L297.76 719.6L299.62 718.38L302.2 719.6L301.92 723.79L299.19 726.23L302.35 723.96L302.92 726.57L305.5 728.49L308.65 728.14L311.95 731.1L309.23 727.62L305.64 727.1L305.5 723.61L308.8 726.75L321.98 731.45L313.81 725.88L315.68 724.83L311.09 724.31L309.66 722.04L311.81 721.69L307.65 718.73L309.23 717.86L304.07 716.81L307.51 709.31L310.52 708.27L311.09 709.84L311.81 703.03L315.39 700.24L319.55 699.89L322.41 707.39L321.12 703.03L324.42 703.03L321.55 703.03L320.69 700.76L325.14 702.16L323.7 701.29L326.71 698.84L329.29 699.19L327.14 698.49L322.13 700.94L317.25 697.44L315.53 699.02L315.53 693.78L317.4 693.78L317.4 692.38L314.24 692.38L314.24 699.36L312.95 700.94L312.38 698.84L312.81 701.46L310.52 702.86L310.66 705.47L308.8 707.04L303.92 702.86L305.93 700.59L303.92 702.68L299.91 702.33L301.06 705.13L299.91 702.68L294.18 705.47L289.59 705.82L286.87 703.21L292.31 696.05L295.9 695L293.32 690.46L294.32 688.54L292.74 685.04L294.75 682.94L292.74 681.37L293.89 678.92L292.31 676.65L293.75 672.98L297.9 671.23L295.75 671.23L294.61 669.48L293.32 671.23L294.46 668.43L292.03 671.93L293.32 674.2L291.17 672.63L289.88 667.9L289.88 672.28L288.3 673.33L290.6 674.9L289.16 677.35L290.31 677.7L289.59 681.55L286.01 682.59L283.86 682.25L283.57 679.8L280.56 680.32L282.71 677.52L279.27 674.38L279.27 671.75L281.71 669.65L283.57 673.33L286.01 672.45L288.16 668.78L284.43 668.78L292.6 663.35L292.6 661.6L291.31 658.98L287.3 660.73L286.73 657.58L284.15 656.7L286.15 655.13L284.58 652.32L281.28 653.2L279.42 650.22L282.28 653.55L279.7 656.88L281.71 658.1L279.13 660.38L279.99 659.33L278.41 658.98L278.41 657.05L274.69 658.28L273.4 653.73L275.98 653.02L277.55 654.25L275.69 652.85L272.25 653.38L272.39 650.75L274.26 650.05L271.39 648.12L275.55 641.28L276.84 643.91L278.56 642.86L282.71 645.14L283.43 641.28L286.3 639.53L284.29 651.27L287.3 650.05L286.15 654.25L289.31 653.9L289.59 656.7L292.17 652.32L293.75 653.02L291.74 655.48L292.17 656.7L293.75 654.25L294.89 657.4L292.74 659.85L294.32 660.03L294.32 662.83L297.9 662.83L296.9 659.85L302.49 654.6L299.19 652.5L302.49 651.8L303.21 649.7L297.19 648.82L294.61 643.74L291.74 641.81L291.74 639.88L288.3 637.95L287.3 635.32L290.02 634.27L290.74 630.41L285.15 633.92L285.87 630.76L287.44 630.76L285.87 629.18L283.72 631.99L282 631.82L281.85 628.83L281.71 630.76L279.56 630.59L280.42 624.62L281.28 623.04L283.29 625.15L285.15 623.04L288.45 624.1L285.15 622.69L283.86 624.8L283.29 619.88L285.29 617.42L290.31 617.95L289.16 616.2L293.46 603.02L298.19 603.55L294.46 599.15L294.61 596.87L297.62 595.11L294.61 596.69L295.04 594.4L296.9 592.82L298.48 594.4L297.33 592.12L301.2 591.94L298.48 591.77L298.48 588.6L300.2 588.77L306.22 575.75L307.94 578.04L308.8 575.22L312.09 573.64L314.82 575.04L316.97 572.23L321.98 572.58L321.98 574.69L324.71 567.47L326.43 566.94L329.72 567.29L333.59 571.52L331.87 568.17L333.16 567.29L330.15 563.06L323.42 564.83L322.41 563.24L316.68 565L314.24 564.3L312.38 565.88L310.52 564.3L310.09 565.88L302.63 560.42L304.07 557.95L302.78 558.3L303.78 556.89L302.35 555.48L316.54 544.9L311.23 539.07L305.5 524.59L306.5 524.06L307.94 529.53L311.52 530.24L309.37 533.24L318.26 547.01L326.43 536.25L325.85 529L327.43 526.88L329.29 528.65L328.72 527.77L336.89 527.24L344.49 529.53L347.07 531.83L348.79 537.31L350.79 535.36L348.21 534.83L348.64 526.35L335.03 519.46L339.33 515.57L348.79 515.92L351.94 510.26L356.1 507.96L361.4 509.2L361.4 507.96L364.55 507.43L351.94 507.43L350.36 509.55L339.33 511.5L336.17 509.02L333.02 511.68L328.29 512.74L326.71 510.79L324.42 511.5L325.28 502.3L320.98 500.7L319.4 504.07L318.26 502.65L313.24 503.18L308.22 520.34L304.5 524.94L302.92 523.52L301.2 525.47L299.91 521.23L304.93 522.99L307.08 520.17L306.36 518.75L307.94 518.57L312.95 503.36L311.38 496.28L325.14 495.39L326.14 496.63L325.85 495.39L334.6 494.51L337.89 492.56L341.19 493.97L340.9 495.04L343.77 492.91L345.63 487.77L351.94 487.06L355.09 483.52L358.25 483.7L358.25 481.57L351.94 482.81L349.93 486L348.79 486L348.79 483.87L346.64 486L343.77 486L343.77 488.66L342.77 488.13L340.9 491.49L332.16 490.61L331.3 486.36L332.73 485.82L327.43 481.75L326.86 477.49L325.42 477.85L329.58 476.6L329.15 474.83L327.29 475.36L325.71 473.41L324.56 474.65L321.55 468.98L320.12 467.91L319.12 469.51L319.4 466.85L316.39 468.62L314.1 465.43L310.52 464.54L308.51 466.49L309.66 468.62L307.79 468.8L307.36 463.3L310.95 463.3L314.1 458.5L316.68 457.61L312.81 457.26L312.24 460.46L311.81 458.5L313.96 455.84L312.09 452.64L312.52 449.09L315.25 444.29L313.38 442.33L312.52 438.78L314.53 441.8L313.38 438.24L311.09 438.78L308.37 433.8L317.11 429.17L322.41 430.06L320.41 428.1L319.55 429.17L314.96 428.46L311.09 424.9L311.09 420.8L308.51 423.47L305.5 423.12L307.65 415.82L312.67 413.32L312.24 412.08L319.4 410.29L317.11 410.29L318.69 406.91L321.27 407.44L318.83 406.37L315.39 407.98L311.81 412.61L307.79 414.39L305.64 399.78L306.65 401.02L308.65 397.99L312.81 399.95L309.08 397.1L305.79 399.6L306.36 397.28L303.49 396.39L303.06 393.89L304.64 391.75L301.63 386.04L305.21 383L304.64 381.93L306.22 381.93L304.5 381.75L303.21 379.07L303.35 371.57L301.63 367.28L300.34 377.82L297.76 383.72L301.92 385.68L289.02 379.97L289.02 371.93L286.73 369.42L285.87 363.88L285.01 372.64L288.02 375.68L285.58 378.89L288.73 380.14L284.72 381.57L282.14 386.39L280.56 385.68L278.7 388.71L277.41 380.86L278.13 382.11L279.85 380.32L279.27 374.79L277.55 371.93L274.69 371.93L274.11 368.35L276.84 361.56L272.68 364.42L270.39 363.7L270.96 366.74L266.66 368.17L264.8 371.57L259.06 371.03L257.77 366.39L260.5 363.88L266.52 366.03L268.67 362.99L265.66 363.17L267.09 359.59L264.94 360.13L260.64 356.55L256.91 357.27L258.35 358.16L258.35 361.38L253.9 365.49L255.91 359.59L252.61 353.87L256.2 353.33L254.91 352.97L255.48 351.36L256.91 351L256.63 348.5L257.77 348.85L259.64 344.2L257.63 342.59L258.2 340.8L259.78 340.08L261.21 341.87L261.36 347.06L263.36 346.53L263.65 344.38L262.07 343.3L264.94 338.65L263.08 337.04L264.08 335.24L262.5 333.09L264.51 333.63L265.8 330.23L267.09 331.3L270.96 329.15L273.25 331.66L278.7 330.94L277.41 329.51L278.84 325.74L277.41 319.83L280.42 316.96L280.56 319.11L278.56 319.83L281.57 321.08L279.7 327.72L282.57 330.23L282.57 332.56L284.29 332.56L281.57 334.17L278.41 341.16L282.14 342.41L277.12 344.56L277.84 349.03L282.86 345.45L284.72 346.89L283.72 342.41L282 341.51L284.15 337.75L286.58 338.11L285.72 340.44L289.16 344.02L287.73 340.26L289.88 338.83L288.88 335.24L293.75 334.53L293.46 332.38L298.62 330.58L295.47 329.69L294.75 327.72L297.04 326.28L296.61 324.49L292.46 326.28L291.31 322.87L288.3 324.13L286.87 320.18L284.43 320.18L284.72 318.03L289.88 320.36L292.46 318.57L290.6 317.85L291.17 316.6L284.15 315.88L283.72 313.19L288.16 311.03L288.45 312.11L295.04 311.03L295.18 309.06L295.75 311.03L296.61 309.96L298.76 311.21L300.34 315.88L304.78 316.42L304.78 325.39L307.65 322.16L307.36 315.88L302.63 309.42L307.22 302.59L308.51 302.77L308.08 301.52L311.09 302.59L314.24 306.9L317.11 306.55L317.68 308.16L327.14 312.65L334.17 313.55L323.56 312.83L323.56 315.88L329.87 317.85L330.73 315.88L336.17 315.88L336.17 313.55L334.6 313.55L336.46 312.83L336.75 314.44L337.89 313.37L349.07 317.85L350.22 324.67L351.65 326.82L352.94 326.28L355.09 333.09L355.09 343.3L356.96 342.05L356.96 344.2L360.25 341.16L358.25 341.16L359.25 334.71L367.42 332.91L369.28 330.05L377.17 327L380.03 328.07L378.03 319.11L374.44 316.96L377.17 320.9L375.73 325.39L366.56 328.61L357.53 328.97L354.52 318.93L357.1 323.23L355.95 323.59L356.53 325.92L360.97 325.21L360.4 322.34L358.53 322.7L355.38 315.34L353.23 315.52L354.81 314.8L353.09 314.08L352.8 315.34L351.65 314.8L352.8 313.9L351.08 314.62L347.78 312.47L351.08 310.32L351.51 311.75L358.1 311.03L361.11 307.62L364.41 307.98L360.68 307.44L363.41 301.7L362.55 297.56L363.12 302.06L357.96 309.96L353.52 310.14L354.95 307.98L352.37 310.32L349.79 307.8L344.34 307.8L343.63 305.65L345.2 303.31L341.91 299.9L342.48 289.48L344.2 287.5L342.48 286.78L339.33 289.48L341.19 289.48L337.89 295.77L336.17 294.15L336.17 290.73L334.31 290.73L333.31 288.4L336.6 286.06L334.6 284.26L329.87 285.52L332.73 279.23L329.87 280.3L330.73 278.87L328.58 277.79L329.44 275.27L326.57 274.01L326.14 270.95L329.87 269.33L333.02 262.3L336.17 261.22L342.48 262.3L348.64 259.24L340.04 259.24L336.17 254.55L330.44 254.55L335.6 252.93L334.74 250.95L337.46 250.05L341.33 243.74L343.05 244.28L343.63 243.37L341.91 243.37L343.05 241.21L339.76 244.64L336.6 243.92L332.02 250.23L330.15 249.69L331.73 250.95L320.26 250.77L320.26 249.33L328.72 250.59L330.58 249.15L323.7 242.47L325.85 240.31L323.7 240.31L323.85 236.34L327.43 236.34L327.57 239.22L329.15 239.41L327.14 232.19L327.29 235.8L324.13 235.8L326.28 233.99L321.7 229.48L323.85 225.5L323.42 226.77L324.71 226.95L324.99 224.96L327.86 225.86L326.71 224.42L329.44 224.6L328.43 222.61L329.87 223.16L330.15 221.35L324.42 221.35L327.57 222.43L323.42 223.88L323.13 218.28L323.56 219.36L324.71 218.28L323.13 218.1L322.27 214.48L323.7 213.4L316.39 203.99L312.95 195.12L314.53 193.67L312.24 191.68L313.1 188.06L311.52 183.89L312.81 178.46L311.09 175.38L313.53 173.92L318.83 175.74L320.41 177.91ZM490.11 460.81L493.69 464.01L493.69 456.9ZM483.37 448.2L483.52 454.42L487.39 458.15L487.39 449.27L488.53 448.2ZM448.26 422.94L449.55 425.43L455.85 422.94ZM459.15 422.94L462.16 426.68L466.75 422.94ZM447.54 504.78L449.55 504.78L449.55 509.91L447.11 511.15L449.55 515.57L449.55 519.99L451.84 517.51L451.7 507.96L455.85 499.64L449.55 500.35ZM524.37 567.82L525.23 571.52L522.65 574.16L525.23 574.16L525.23 576.81L527.09 574.16L526.37 570.99L531.53 563.06L525.23 563.24ZM518.35 643.39L521.79 643.39L518.92 643.39L518.92 637.78L518.49 641.11ZM518.92 637.08L523.51 643.39L525.23 638.66L531.53 638.48L532.82 637.08L531.53 635.32L531.53 637.08L527.95 637.08L525.23 634.27L525.23 637.08L518.92 637.08L522.36 630.76L518.92 627.43L515.19 630.76L518.92 630.76ZM400.82 454.77L403.11 460.81L405.55 461.88L407.41 460.81L405.55 457.44ZM377.17 458.68L378.46 460.81L380.32 460.81L380.32 465.6L380.32 459.75ZM367.71 447.49L373.73 448.2L376.02 451.04L374.01 447.67ZM361.4 469.33L359.82 482.81L361.4 482.81L362.55 479.62L362.55 470.22L364.55 469.33ZM386.63 566.59L386.63 567.82L384.76 567.82L386.63 569.58L386.63 574.16L388.2 574.16L387.92 567.82ZM404.54 555.31L392.93 555.83L407.98 555.31L405.55 554.25ZM379.6 599.33L380.32 600.73L382.76 599.33L384.19 594.05L380.32 597.75ZM392.93 645.32L392.93 651.97L396.09 649.7ZM410.71 706.35L411.85 707.92L418.16 706.35L411.85 705.65ZM407.84 668.6L411.85 672.8L414.15 668.6ZM357.96 674.9L355.95 679.97L361.4 678.92L361.4 671.93ZM355.09 597.39L355.09 599.33L353.37 599.33L355.09 601.79L361.4 598.45ZM329.87 500L329.87 506.01L332.45 504.78ZM329.15 536.25L329.87 538.36L336.17 541.19L332.73 536.25L329.87 534.83ZM533.11 130.15L532.82 132.7L536.26 130.34L540.99 130.88L543.29 128.15L540.99 128.52L540.71 130.15L537.84 130.15L537.84 127.79L535.4 130.15L534.69 128.7ZM515.19 126.88L512.61 126.88L512.61 127.97L518.92 126.88L518.92 125.61L515.77 126.15ZM500 141.43L500 144.34L503.15 144.34L502.29 148.88L505.59 151.24L504.3 147.43L505.02 142.7L503.15 140.16L503.15 142.7L501.29 142.7ZM509.46 136.34L509.46 141.61L506.31 141.61L509.46 147.79L511.47 145.79L509.46 144.7L511.04 136.34ZM495.41 139.43L496.85 140.16L496.85 145.06L499.14 145.79L496.85 138.34ZM503.58 111.22L500.57 111.22L503.15 115.41L504.87 114.32L503.15 114.32L503.15 112.68L508.17 111.22L506.31 109.03ZM493.69 110.13L493.69 112.13L489.82 114.32L492.55 114.32L492.55 117.41L495.41 114.32L495.41 111.22ZM471.62 134.88L471.62 136.34L475.78 136.34L477.93 138.52L477.93 136.34L481.08 136.34ZM471.48 133.25L477.93 133.25L471.62 132.52ZM477.07 155.24L474.77 161.41L477.93 159.96L479.07 155.24L483.23 155.24L483.66 152.51L477.93 153.96ZM477.93 139.61L484.09 145.79L482.08 142.7ZM537.84 322.16L537.84 323.23L538.84 322.16L537.84 319.11L525.23 319.47L522.5 322.16L525.23 322.7L525.23 329.51L529.96 322.16ZM531.53 323.77L531.53 330.05L534.26 328.43ZM533.54 315.88L541.28 315.88L544.15 318.57L544.15 313.73L537.84 312.83ZM502.87 306.37L503.15 309.6L505.16 303.31ZM452.7 177.37L452.7 182.26L451.27 183.53L452.7 183.53L452.7 189.87L453.42 177.37ZM433.78 186.79L433.78 193.13L432.49 193.13L433.78 194.4L434.78 193.13ZM408.7 210.5L408.7 211.95L415.01 213.58L415.01 211.95L411.85 210.32ZM402.97 206.34L405.55 210.5L405.55 208.88L410.99 208.88L408.7 207.25ZM392.36 215.02L392.93 218.28L386.63 217.19L386.63 214.12L385.19 218.28L392.93 219.9L394.65 218.28L394.37 215.02L392.93 214.66ZM450.69 228.03L453.7 237.06L452.7 228.94ZM419.16 218.28L421.31 220.44L424.47 219.54L424.47 221.35L420.74 221.35L421.31 225.32L424.47 225.68L421.89 224.6L425.18 221.35L425.18 218.28L430.06 218.28L427.62 216.47L421.31 217.37ZM417.59 297.03L419.16 303.31L418.16 296.31ZM424.47 310.32L424.47 316.78L425.47 315.88ZM455.85 411.9L457.86 416.71L457.72 422.76L464.17 416.71L462.16 413.68ZM449.26 404.05L449.55 408.51L446.68 410.29L449.55 414.75L449.55 419.02L455.85 419.02L455.85 416.71L454.42 416.71L450.12 407.26L454.85 400.13L449.55 401.02ZM351.94 202.72L351.94 208.88L353.52 205.62ZM348.79 201.46L348.79 205.62L346.92 205.62L348.79 206.52L350.65 203.99L348.79 199.29ZM336.17 192.59L339.33 199.29L340.9 199.29L341.19 196.21L339.33 193.13L336.75 193.13ZM367.71 215.02L364.55 212.85L364.55 215.57L370.86 217.19L370.86 221.35L372.15 221.35L371.86 215.02ZM360.4 208.88L359.39 210.32L361.4 212.13L361.4 215.75L362.98 215.02L361.4 208.33ZM348.79 376.75L348.79 387.64L351.37 385.14L351.37 378.89ZM642.18 385.14L642.61 391.39L644.91 393.18L644.91 391.39L647.63 391.39L647.63 385.14L653.08 385.14L651.21 383.18L644.91 382.64ZM652.36 391.39L659.53 391.39L657.52 389.07ZM648.2 397.81L651.21 401.38L655.37 397.81L656.37 391.75L651.21 394.25ZM669.99 473.41L668.13 479.62L671.42 479.62L671.42 473.41ZM649.49 602.49L657.52 603.19L651.21 602.49L651.21 600.73ZM644.33 599.33L641.75 600.03L648.49 599.33L644.91 598.62ZM657.52 533.77L657.52 536.25L654.65 536.25L657.52 539.6L660.67 536.25ZM663.68 624.45L663.68 625.67L666.84 626.03L667.98 624.45L668.13 618.13L666.84 616.2L666.84 624.45ZM657.52 641.81L658.95 640.23L657.52 640.23L656.52 643.39L656.8 646.54L659.1 648.29L661.39 646.54L661.1 638.66L663.68 635.67L660.67 633.92L660.67 643.39L659.38 643.39L659.38 646.54L657.52 646.54ZM638.6 364.06L638.6 366.21L637.17 366.21L638.6 367.64L638.6 372.64L640.75 372.64L640.75 366.21ZM553.46 386.75L553.46 388.36L555.47 388.36L553.46 386.75L553.46 383.54L555.47 381.93L553.46 380.86L552.46 381.93L553.46 383.54ZM545.87 309.6L547.01 315.88L550.31 318.03L556.62 315.88L550.31 315.88L550.31 310.85ZM540.13 309.6L548.3 309.6L544.15 305.47ZM568.51 435.58L569.23 441.8L570.23 438.78L569.23 435.58ZM576.25 470.22L578.69 470.22L578.69 478.02L577.11 479.62L581.84 480.51L578.97 479.62L579.83 470.22L578.69 468.8ZM559.77 406.37L556.62 407.62L559.77 408.15L562.92 406.37ZM288.16 230.56L288.16 228.03L292.17 229.3L293.6 227.67L292.46 226.59L296.61 223.7L307.51 221.89L308.22 217.73L310.09 217.01L317.54 220.08L320.26 224.6L309.23 229.48L300.05 237.42L298.91 237.42L302.35 233.99L298.48 233.99L298.48 237.42L296.9 237.42L293.32 232.91L291.31 234.89L288.88 233.63L289.45 230.92ZM311.66 177.91L310.23 183.53L311.95 186.61L310.95 191.68L312.95 193.31L311.66 196.75L314.67 201.82L311.23 203.09L309.94 205.62L307.65 205.98L305.36 204.17L302.92 207.07L294.61 206.16L290.02 203.09L290.88 202.18L289.16 198.74L293.75 197.84L295.61 195.49L292.89 188.06L287.16 184.62L287.16 170.3L292.31 167.58L293.03 164.67L296.47 164.86L298.05 163.04L309.37 172.11L309.94 175.38ZM292.17 397.99L290.88 399.24L294.32 401.56L293.89 404.77L295.47 404.05L296.61 409.05L295.04 411.01L298.62 413.86L299.05 416.89L297.19 418.67L298.05 420.63L292.6 416.53L291.17 416.89L291.74 418.84L288.59 417.78L287.01 415.82L288.88 412.97L284.43 412.79L285.58 406.19L283.29 408.15L285.29 401.74L283.86 402.09L283.72 392.64L281.57 388L286.58 382.82L289.16 383L290.17 385.5L290.6 388.54L288.16 389.78L290.45 391.03L291.31 397.46ZM612.8 686.44L614.95 686.26L614.23 685.39L617.39 681.72L616.38 684.17L613.09 685.39L607.5 677.87L607.64 675.78L608.93 676.13L610.22 672.8L610.08 674.9L613.95 674.03L614.09 676.48L613.95 673.33L616.38 675.08L616.53 671.23L617.96 670.88L617.1 669.48L618.96 669.65L617.96 667.9L621.11 669.3L619.82 667.38L621.11 666.33L619.11 666.33L620.11 661.95L621.54 661.6L620.11 660.55L622.83 662.3L623.55 661.08L626.85 664.23L625.56 666.68L623.98 666.51L624.7 668.08L622.69 668.08L623.84 669.13L622.98 671.23L626.13 673.85L627.56 678.22L626.13 677.7L627.13 682.59L625.13 683.12L626.27 685.57L623.26 686.61L623.26 687.84L624.41 687.31L623.12 688.54L624.55 687.84L623.41 689.41L624.84 688.01L625.13 690.46L627.13 687.31L626.27 686.61L627.28 686.96L626.42 685.92L629.43 687.66L631.15 686.09L629.14 688.89L630 690.63L627.13 691.16L628.71 695L626.13 693.78L623.84 696.05L625.13 697.62L626.13 695.87L627.13 696.57L626.27 698.49L629.43 704.78L625.13 703.38L624.98 700.41L622.98 703.03L622.4 701.11L619.25 700.24L619.82 705.13L617.67 707.04L615.81 706.35L614.81 708.79L616.81 712.63L619.25 712.1L621.11 713.67L620.25 714.89L619.68 713.15L613.52 714.55L613.23 713.5L612.23 714.72L615.38 717.34L614.52 718.38L613.09 717.51L610.79 719.78L608.21 718.38L606.06 719.6L607.07 715.94L610.36 714.37L606.06 712.8L606.49 709.14L609.5 708.79L608.07 707.57L609.07 706.52L605.78 706.17L603.05 708.27L602.62 706.7L604.92 704.95L603.2 704.25L601.19 706.87L600.62 704.6L606.49 703.38L608.79 697.44L612.51 700.06L607.93 697.1L609.07 695.87L607.64 697.1L606.21 695.52L607.78 694.48L606.21 693.08L606.35 690.46L604.2 696.75L598.47 696.92L599.04 698.84L598.04 698.32L598.32 699.89L596.46 700.94L595.89 696.22L592.3 695.35L591.16 689.06L595.31 684.69L594.6 683.82L596.03 684.34L595.03 683.12L597.18 683.47L599.04 680.85L604.92 685.39L607.64 682.42L608.93 684.52L609.22 682.59L609.5 684.52L610.51 683.82L610.22 685.57L610.94 684.17L611.94 685.04ZM283.29 747.64L285.72 746.08L285.01 747.3L287.01 749.91L290.74 752.52L291.6 754.25L290.17 755.47L291.88 758.25L288.02 758.08L290.02 759.99L288.02 762.43L289.16 764.69L284.86 769.73L285.01 772.16L283.57 772.85L282.71 771.46L283.72 771.12L282.43 767.81L281.28 768.86L282 772.16L279.99 769.73L280.71 771.81L278.13 771.12L279.27 772.85L276.69 773.89L274.54 772.85L275.12 775.98L271.96 775.81L268.52 777.89L265.51 777.19L267.38 779.1L262.5 781.01L262.79 779.28L259.21 779.8L259.92 778.24L255.34 779.28L257.49 774.24L253.62 775.98L249.46 768.86L250.61 768.86L250.46 765.9L253.47 763.64L254.91 764.69L253.33 761.73L261.36 757.39L264.08 752.34L263.79 755.47L266.95 756.34L267.52 762.08L266.09 766.95L267.81 762.43L267.23 758.08L268.09 759.12L265.08 753.04L268.81 751.99L267.09 750.08L268.95 749.56L268.95 747.64L271.68 750.08L271.96 747.82L273.25 748.34L274.11 746.6L272.68 744.34L270.39 748.34L272.68 743.82L271.1 743.29L271.1 739.64L280.28 742.42L281.14 743.82L279.85 745.03L281.85 747.12ZM317.68 923.37L320.26 923.37L322.27 921.13L327.72 921.48L329.01 918.04L332.3 920.28L333.88 918.56L334.74 919.42L341.33 917.01L342.62 918.21L345.92 917.7L346.35 916.32L351.08 918.21L353.37 917.01L355.24 917.52L357.24 921.99L366.27 924.06L365.7 925.95L367.71 928.36L365.99 930.76L368.57 933L369.71 931.79L367.71 933.51L368.28 935.92L370.86 931.45L372.44 935.06L370.43 934.37L369.28 935.74L368.85 938.15L370.72 940.21L367.99 939.01L366.56 946.39L361.54 949.65L359.82 954.97L356.67 957.03L358.25 958.4L355.67 960.8L348.07 960.8L343.2 965.78L331.44 967.66L331.01 966.46L331.44 967.49L328.72 967.83L323.85 972.8L320.69 971.43L318.69 971.43L317.97 973.49L317.11 971.6L316.97 972.8L311.38 972.12L305.36 974.52L307.65 975.72L304.21 974.69L302.2 972.12L298.76 973.49L295.61 971.43L291.02 973.83L283.57 973.66L284.72 973.15L283.57 972.12L278.99 975.72L278.99 979.66L275.55 980L269.38 972.12L262.79 968.86L259.92 964.58L261.21 958.4L259.92 956.17L268.52 946.39L272.54 944.67L274.4 942.1L274.11 940.9L272.82 941.93L274.4 938.66L279.7 936.77L281.57 933L285.15 933.34L292.03 929.56L294.03 930.59L297.9 928.36L299.34 929.04L307.51 924.06L310.52 924.92L312.67 923.71L312.81 924.75L314.24 921.99L313.1 924.23L314.39 922.51L315.39 924.06L317.97 922.85Z" />
</svg>
