<svg xmlns="http://www.w3.org/2000/svg" viewBox="0 0 1000 1000" fill="currentColor" fill-rule="evenodd">
  <path d="M39.04 361.18L68.38 362.51L71.61 359.63L71.68 356.51L76.83 356.67L80.28 352.77L87.81 351.29L93.72 352.61L95.64 349.89L100.63 348.41L104.7 351.29L107.01 349.96L112.84 351.68L117.45 348.25L119.29 350.43L124.67 351.91L124.67 349.89L128.74 349.57L134.73 345.6L135.27 343.65L137.65 343.65L138.11 338.74L140.57 338.04L140.18 335.31L142.79 334.29L141.56 331.41L143.41 331.02L142.95 329.07L145.1 328.99L145.25 326.73L141.56 322.67L143.48 321.58L142.41 320.96L143.56 315.57L146.71 310.89L148.63 311.9L150.24 309.41L153.16 310.81L152.85 309.41L155.69 307.53L160.15 309.64L160.3 307.53L163.99 308L165.22 306.05L168.06 306.67L169.06 305.19L169.59 306.52L173.2 304.72L175.43 306.52L175.51 305.11L177.43 306.36L178.04 304.8L180.42 305.58L181.65 303.86L183.26 305.27L183.88 303.94L188.64 304.49L190.1 301.83L192.33 304.17L197.62 301.36L197.7 302.93L203.54 302.53L205.38 305.11L207.84 303.55L208.22 306.13L210.6 305.58L210.76 321.66L218.9 325.87L224.96 335.62L232.41 342.09L239.63 363.29L242.55 367.26L246.23 369.6L269.96 375.44L294.61 366.56L303.68 364.77L362.35 365.78L356.74 351.68L356.74 322.59L446.36 322.59L446.36 361.03L449.97 356.12L452.12 356.43L451.74 355.34L487.67 355.11L487.6 329.22L518.62 313.15L520.54 313.15L520.93 314.87L523.23 313.23L563.85 338.74L587.2 358.07L587.51 355.11L621.6 354.33L627.98 349.96L659.69 313.07L675.9 284.88L688.18 278.08L712.83 254.15L706.77 243.35L706.77 202.22L684.19 183L734.03 183L735.8 177.74L734.64 176.09L735.8 176.09L734.49 175.69L733.65 165.33L734.72 165.8L732.95 160.85L776.11 161.95L772.89 165.64L764.13 223.3L769.12 239.28L774.35 270.97L772.43 274.88L793.24 285.43L804.83 301.13L815.28 309.41L822.96 322.28L828.02 324.23L828.1 328.44L830.02 330.94L829.64 341.62L827.72 350.51L822.96 356.67L820.96 374.58L838.55 374.58L841.54 410.92L841.54 443.94L838.08 447.98L833.78 450L832.17 453.19L828.18 452.02L822.88 453.42L820.81 455.75L820.81 459.24L816.28 459.63L812.59 462.58L807.29 461.8L805.45 456.6L800.99 454.51L799.38 456.76L796.54 454.35L791.7 453.81L784.02 458.08L777.49 454.82L776.04 456.99L774.35 455.28L771.58 458.15L770.35 457.3L767.9 461.41L770.2 464.6L768.28 465.14L768.74 467.86L766.59 468.17L766.97 471.27L769.28 472.67L766.28 475.93L768.36 481.12L762.83 482.52L762.9 486.17L760.06 485.47L759.45 489.42L756.53 490.59L756.45 493.69L753.38 495.4L754.76 499.27L753.92 502.06L757.07 505.55L756.99 507.49L760.6 506.4L761.83 508.19L765.82 506.33L769.2 508.73L771.5 507.95L776.27 510.59L778.34 513.77L786.94 509.97L788.48 511.44L789.01 510.28L793.31 511.52L795.77 515.08L803.22 514.93L808.52 517.25L815.28 524.23L822.57 526.86L824.65 531.9L827.1 532.28L830.48 536L830.87 538.94L833.17 540.96L833.48 547.23L831.25 547.69L832.02 549.55L838.08 553.57L838.39 555.43L844.92 558.37L845.07 565.42L847.3 565.65L848.14 568.28L851.6 568.28L853.75 570.29L852.83 572.61L858.97 575.4L866.5 574.85L872.03 582.74L871.11 588.31L877.79 590.01L879.48 588.7L884.93 592.95L885.16 595.27L889.31 599.99L896.68 598.67L902.44 602.77L903.9 606.94L908.81 611.35L906.43 615.44L906.28 621.47L903.28 626.8L905.51 631.51L904.97 638.93L907.51 640.09L906.97 653.83L917.11 670.04L916.8 674.9L931.31 684.62L929.32 693.65L931.39 697.2L938.76 694.88L943.45 691.18L948.44 690.33L954.5 691.88L954.81 693.57L962.18 692.8L966.41 696.12L973.32 698.36L970.55 703.83L973.63 708.84L970.02 715.32L969.94 740.45L979.62 752.39L960.72 752.47L960.88 747.85L958.27 746.77L954.97 748.62L953.81 752.47L946.21 752.55L939.45 740.68L943.68 729.66L930.93 730.12L933.69 722.41L931.77 721.18L922.25 726.42L918.8 723.88L905.05 731.12L866.88 744.3L860.12 753.08L792.78 819.15L767.28 817.07L755.69 808.22L745.93 814.22L732.03 817.92L708.61 819.61L691.87 830.85L693.48 833.62L692.18 838L683.35 836.08L683.42 833.92L680.89 831.46L673.52 833L673.59 826.46L666.37 816.3L661.77 813.53L661.38 815.38L654.24 821.31L644.18 824.54L639.73 827.92L638.5 827.46L638.96 825L622.22 815.76L612.62 815.69L607.63 820.15L604.94 819.84L602.25 823.23L598.33 823.31L588.74 839.39L589.27 833.08L584.97 831.39L582.75 824.46L581.36 828.08L579.67 827.69L578.98 829.08L575.83 827.54L571.3 830.39L566.23 829.23L567.62 820L565.47 812.07L563.85 811.15L559.02 812.92L557.4 809.14L554.64 810.38L549.72 805.91L545.88 806.68L544.43 803.45L539.51 804.91L538.13 798.21L535.52 796.29L535.52 790.82L533.67 791.67L527.84 789.9L525.23 784.05L521.16 783.89L518.85 781.28L520.7 777.96L519.62 776.19L515.7 773.27L511.02 774.27L507.79 771.34L507.79 760.02L509.94 757.09L505.03 754.78L503.57 756.17L500.88 752.55L494.05 749.31L489.06 748.31L487.44 749.62L484.68 746.38L481.99 748.62L482.99 753.93L480.53 756.78L479.46 761.56L477.38 763.64L474.7 763.79L473.01 769.49L469.86 770.57L467.17 769.34L465.71 772.8L463.33 773.81L456.73 766.8L452.43 766.57L452.73 764.64L450.74 764.56L449.05 762.25L433.61 763.02L431.69 761.79L431.85 758.4L429.77 756.63L423.17 760.71L420.94 767.03L415.87 767.64L414.03 770.65L409.19 770.88L405.04 777.5L398.82 778.12L396.21 772.57L385.54 773.04L380.24 769.11L380.32 765.95L376.55 766.33L375.71 767.88L372.41 763.18L373.25 757.55L367.95 757.24L365.65 755.4L363.96 758.71L361.35 758.55L357.2 754.39L353.44 753.24L351.6 746.77L352.82 744.22L352.21 739.29L346.6 738.91L346.53 735.13L344.53 732.43L342.53 731.05L335.7 731.35L332.09 729.04L332.09 726.04L327.33 722.72L327.02 716.79L313.97 703.45L313.43 698.82L310.9 694.81L310.74 690.87L315.27 680.23L310.51 675.6L310.59 671.2L308.67 667.42L286.63 654.45L279.79 647.42L274.42 645.96L267.43 646.88L260.83 639.93L255.14 640.4L254.99 638.16L261.13 633.37L260.44 630.28L256.6 628.89L253.3 623.94L248.08 624.25L247 621.63L241.4 617.84L240.78 609.88L244.01 605.86L242.47 601.76L248.46 597.9L248.62 595.5L237.71 591.25L225.81 578.57L221.12 575.55L218.36 569.52L213.98 567.74L209.91 562.01L202.62 560L197.93 555.59L192.02 555.05L182.73 549.09L175.81 548.23L167.14 541.65L166.29 536.23L161.76 532.13L158.77 532.51L155 530.04L155.31 522.52L161.68 515.47L160.84 507.95L156 501.21L150.86 498.26L146.1 499.43L136.96 493.22L131.89 488.18L128.13 477.63L113.15 474.14L103.78 475.15L99.48 472.9L98.18 470.03L92.8 469.95L89.81 471.89L78.59 468.4L75.21 465.76L73.22 461.96L74.83 454.74L83.05 445.89L79.98 442.24L81.59 437.26L72.14 437.96L48.87 434.62L41.96 436.41L34.28 433.85L28.45 436.41L25.07 435.4L24.22 429.34L30.14 421.18L30.37 413.87L28.6 413.09L26.6 416.51L24.3 416.59L20.77 414.18L20.08 411.46L23.46 399.95L28.68 399.17L35.74 391.7L34.67 387.03L36.74 379.56L34.28 378.86L33.52 371.85L35.97 367.65ZM786.48 557.44L787.48 558.84L788.86 557.44L787.48 556.9ZM758.53 574.31L759.99 574.31L758.83 573.77ZM756.53 510.12L757.14 510.98L757.14 509.74ZM751.46 501.75L750.85 502.92L752.08 501.21ZM648.56 651.9L655.93 652.6L649.17 651.28ZM650.09 648.5L650.86 649.28L650.86 647.81ZM654.62 657L655.93 658L655.93 656.69ZM654.62 655.3L655.93 656.53L655.93 655.3ZM653.09 653.6L654.24 654.3L654.24 653.21ZM662.61 674.67L662.61 673.67L660.92 675.21L662.61 676.45ZM660.61 683.93L661.92 683.93L660.92 683.39ZM659.62 669.12L662.38 671.89L661.38 670.43ZM658.54 695.73L660.08 695.73L659.23 695.04ZM660.92 686.48L660.92 684.93L660.15 685.63ZM660.46 680.61L661.77 680.61L660.92 679.92ZM659.23 703.29L659.23 705.3L660.23 704.22ZM658.62 702.52L660.15 702.52L659.23 701.75ZM653.86 662.01L655.55 663.33L654.24 661.63ZM655.16 672.13L655.93 672.97L655.93 671.74ZM655.93 681.08L655.93 682.23L653.78 682.23L656.47 682.23ZM656.08 673.82L657.54 673.82L657.54 675.52L657.7 673.82ZM658.46 697.43L658.16 698.74L659.23 696.74ZM655.93 700.9L655.93 702.52L657.47 702.52ZM654.93 695.73L655.93 696.81L657.01 695.73L655.93 694.73ZM777.42 717.94L777.42 719.41L780.72 719.95L780.72 722.8L783.02 722.8L783.02 719.41L785.33 719.41L784.1 718.1ZM964.41 729.5L966.33 731.43L966.33 729.5ZM883.09 726.11L882.7 729.12L890.77 726.11L892.15 727.42L892.99 726.11L885.39 724.34ZM655.93 710.93L655.93 712L656.93 710.93ZM656.7 709.31L657.54 710.15L657.54 709ZM663.92 812.22L665.99 812.38L664.3 811.61ZM658.85 807.14L660.92 807.3L659.23 806.45ZM650.55 725.88L649.25 727.73L652.4 724.65L650.86 725.42ZM651.63 722.8L651.25 724.42L652.55 722.03ZM654.24 716.17L653.4 717.71L655.01 717.71ZM649.56 729.5L650.86 729.97L650.86 728.27ZM630.82 594.73L629.13 597.9L632.66 594.5L630.59 594.88ZM626.36 591.17L628.9 593.65L628.9 591.17ZM628.51 601.3L626.59 601.3L628.9 603.54L628.9 600.91ZM620.14 592.87L621.6 592.87L620.45 592.41ZM622.14 591.17L624.44 591.17L622.14 588.85L621.76 591.17ZM625.52 587.77L625.52 586.3L624.06 587.77L625.52 587.77L625.52 589.94L628.9 589.16L628.9 587.77ZM621.6 597.9L623.91 597.9L625.52 599.83L627.44 597.9L625.52 596.66L622.14 597.28ZM625.06 601.3L626.36 601.3L625.52 600.61ZM623.98 594.5L625.52 594.5L625.52 592.95ZM606.94 577.1L606.94 578.95L607.78 577.64ZM610.31 577.17L609.09 577.64L610.78 577.64ZM614.23 577.64L616.38 577.64L615.38 576.63ZM607.32 574.31L608.62 575.63L610.62 574.31L612 570.99L608.62 572.3ZM611.08 567.5L613.39 567.5L612 566.19ZM608.62 577.64L607.78 581.04L608.62 582.13L611.08 581.04L609.85 581.04ZM612 578.41L612 581.43L613.16 581.04ZM618.53 584.37L618.76 588.78L621.53 590.25L618.76 581.2L618.76 584.14ZM615.15 586.07L616.77 586.07L615.38 585.45ZM615.38 581.04L615.38 583.75L616.92 581.04L615.38 580.27ZM640.96 624.87L642.41 626.18L642.41 623.4ZM639.88 641.79L640.72 642.56L640.72 641.32ZM643.57 636.69L645.26 636.69L644.1 636.07ZM632.28 611.43L632.28 612.51L635.66 612.51L635.66 611.43ZM634.66 608.03L633.28 608.03L635.66 610.27L637.88 608.03L635.66 607.64ZM635.58 624.87L639.42 624.87L636.81 624.87ZM635.66 621.55L635.66 622.55L637.35 620.85L635.12 621.55ZM638.42 628.27L637.81 631.67L639.65 633.37L639.04 627.73ZM625.44 608.03L628.36 608.03L625.52 607.1ZM632.28 601.3L632.28 599.83L630.9 601.3L632.28 608.03L632.28 604.62L635.66 606.25L636.89 604.62L632.28 604.08ZM633.97 618.15L634.12 616.45L632.28 615.91L633.97 616.45L633.97 618.15L631.05 618.15L637.35 618.46L642.41 621.32L639.04 613.67L635.66 614.75L639.04 615.52L634.43 618.15ZM631.13 613.13L632.28 614.13L632.28 612.82ZM627.13 608.64L628.9 611.81L628.51 609.42ZM624.98 638.39L627.21 638.54L625.52 637.54ZM622.14 634.99L622.14 636.07L623.22 634.99ZM649.17 731.2L647.94 734.44L649.48 731.2ZM647.56 648.5L649.56 648.5L647.18 648.5ZM642.41 647.73L642.41 650.82L643.72 648.5ZM641.49 645.18L643.11 646.81L642.41 644.41ZM641.42 631.67L642.41 642.64L642.41 630.97ZM645.41 645.18L646.79 645.18L645.79 644.64ZM644.1 746.92L644.1 748.92L645.03 748.08ZM645.64 742.99L647.02 742.99L645.79 742.45ZM642.87 787.51L644.1 789.28L644.1 787.97ZM641.26 785.2L642.41 786.67L642.41 784.82ZM637.73 757.17L639.04 758.79L639.04 757.55ZM638.19 763.25L638.04 764.79L639.04 762.71ZM640.03 780.12L640.72 780.89L640.72 779.43ZM637.35 775.04L639.04 775.04L639.11 776.73L639.04 774.88ZM587.43 489.89L588.43 490.51L588.43 488.49ZM563.78 506.79L565.85 506.79L564.78 505.71ZM564.78 513.53L564.78 516.25L567.46 513.53ZM568.15 506.79L568.15 508.34L569.69 506.79ZM556.25 493.3L554.79 496.09L559.78 496.56L558.02 492.53ZM560.32 513.53L561.4 514.93L563.78 510.67L561.4 512.37ZM562.01 500.05L564.78 501.21L565.16 500.05ZM561.4 496.64L559.02 496.64L561.4 498.11L561.4 496.4ZM547.88 469.49L547.88 473.91L548.96 469.64ZM518.01 473.06L519.47 474.76L519.24 472.75ZM547.88 476.78L547.88 479.03L550.57 476.39L547.57 476.39ZM547.88 479.81L548.42 481.51L549.26 479.81L547.65 479.81ZM371.64 506.79L372.41 507.64L372.41 506.02ZM576.22 538.87L576.6 540.57L576.6 538.48ZM577.83 538.87L577.6 540.57L579.75 541.81L578.29 538.87ZM577.29 543.9L577.37 547.3L579.98 547.54L578.29 542.89ZM564.78 523.68L564.78 525.39L566.08 523.68ZM560.24 520.28L564.47 522.6L563.78 517.25L561.47 518.57ZM565.62 517.18L568.15 521.75L568.15 517.8ZM564.78 530.04L568.77 530.42L568 529.34ZM571.53 539.56L571.53 541.42L572.46 540.57ZM564.78 532.28L566.23 537.16L571 540.49L568.15 532.28ZM537.74 528.33L537.74 530.89L538.82 530.42ZM537.74 539.1L537.74 541.34L538.82 540.57ZM423.01 546.38L422.09 547.3L423.32 547.3ZM595.19 571.99L595.19 574.31L597.41 574.31ZM603.56 572.61L605.78 572.61L603.17 572.61ZM598.49 570.91L598.49 571.91L602.87 570.91L601.87 569.83L597.87 570.91ZM606.94 575.94L608.62 575.94L608.62 577.48L608.62 575.86ZM604.48 577.64L606.17 577.64L605.02 575.94ZM601.87 574.31L600.64 574.31L601.87 576.01L601.87 574.31L604.55 574.31L601.87 573.46ZM588.43 559.53L589.66 560.77L588.04 559.07ZM588.43 564.18L590.42 564.18L588.43 562.09L587.51 564.18ZM593.34 570.91L590.42 570.91L591.81 575.55L593.34 570.91L597.8 570.91L595.19 569.13ZM591.81 567.5L591.81 566.27L588.74 567.5L588.43 565.03L587.35 567.5L591.81 568.9ZM579.83 550.63L579.21 553.42L581.67 552.18L581.67 549.55ZM581.9 557.44L583.51 557.44L581.67 556.21L580.44 557.44L581.67 558.99ZM578.29 553.65L578.29 554.81L578.29 553.42ZM540.2 577.64L538.67 580.04L541.12 577.1ZM581.67 559.69L585.05 565.72L587.2 560.77L585.05 558.53ZM560.4 601.3L558.79 603.54L562.4 601.3L561.4 600.37ZM732.65 189.59L733.49 190.92L733.49 188.72ZM733.49 184.49L732.34 187.55L735.18 183.31L733.49 183.47ZM736.87 198.45L736.87 200.81L738.02 199.71ZM734.49 194.61L736.56 194.61L735.18 193.67ZM735.72 197.98L737.56 197.98L736.87 197.12ZM733.49 210.76L733.49 213.19L730.73 213.19L731.8 214.29L734.11 213.19L733.88 209.82L732.57 209.82ZM736.87 203.08L738.1 203.08L738.1 201.36L736.26 201.36L736.87 203.08L735.72 203.08L736.87 206.45L735.8 206.45L736.87 204.73L733.49 208.02L738.02 206.45L736.87 203.94ZM728.42 225.03L728.42 227.53L728.73 225.03ZM728.96 223.3L730.11 224.56L730.11 222.13ZM727.43 246.95L728.42 248.05L728.42 245.94ZM727.27 241.87L728.42 243.12L728.42 240.77ZM726.73 242.65L728.42 244.68L727.66 243.59ZM726.73 240.14L727.81 240.14L726.73 239.13ZM727.35 255.4L729.04 255.4L728.42 254.54ZM726.73 256.42L726.73 257.75L728.81 257.05L727.04 256.73ZM726.43 236.78L728.12 237.79L726.35 235.13ZM725.97 231.76L728.42 231.76L726.73 231.29ZM725.66 233.41L726.73 234.51L726.73 233.41ZM718.06 262.13L719.59 262.13L718.36 261.51ZM722.59 258.77L723.35 260.02L723.35 258.3ZM724.2 258.77L725.04 259.47L726.5 257.52L725.04 257.67ZM712.22 268.86L713.29 269.87L714.98 268.86L713.29 268.08ZM716.06 263.77L714.98 265.18L717.9 262.13ZM713.91 265.5L714.98 266.67L716.44 265.5ZM747.01 333.75L747.01 335.7L747.93 334.68ZM708.23 271.83L706.92 272.22L708.92 272.22ZM697.01 282.38L698.09 283.4L698.09 282.38ZM699.78 279.88L701.08 280.66L701.08 279.02L699.16 279.02ZM702.16 277.3L703.16 276.21L702.16 277.22L701.47 275.58L701.47 278.08ZM703.16 273.08L703.16 275.03L704.16 273.94ZM698.78 324.54L699.78 325.79L699.78 323.69ZM698.7 321.19L699.78 322.28L699.78 320.1ZM696.4 317.83L696.4 319.16L697.71 317.91L699.7 319.16L696.78 316.2L697.63 317.83ZM698.63 327.9L699.78 329.07L699.78 327.9ZM763.36 437.58L764.9 439.05L763.9 437.34ZM763.59 452.8L763.9 453.81L763.9 452.18ZM770.66 456.83L771.58 456.14L769.97 456.14ZM755.99 446.04L758.3 446.04L757.14 444.95ZM757.14 443.4L756.15 444.33L757.53 444.33ZM760.52 446.43L760.52 448.14L761.21 446.04L760.14 446.04ZM729.73 440.99L730.96 440.99L730.11 440.37ZM726.27 439.28L729.5 441.69L726.73 438.66ZM696.4 283.94L694.33 284.02L695.71 284.49L693.02 287.38L697.01 284.02L696.4 281.99ZM694.79 302.93L696.4 305.11L696.4 303.47ZM693.02 300.9L693.02 301.91L694.02 300.9ZM693.02 331.02L693.02 335.23L693.94 331.33ZM696.4 327.9L696.4 329.61L694.71 329.61L696.4 330L696.63 327.9ZM695.86 314.4L697.17 314.4L696.4 313.62ZM696.4 310.19L695.25 311.04L696.4 312.06L697.25 311.04ZM685.73 299.26L687.49 300.58L686.26 298.79ZM686.26 293.79L684.96 294.18L686.95 294.18L686.65 292.46L685.19 292.46ZM686.34 290.82L687.95 291.91L688.72 290.82ZM691.79 287.62L693.02 288.94L693.02 286.76L690.26 287.46L691.33 288.16ZM691.33 334.68L691.33 336.4L689.64 336.48L691.33 336.63L691.56 334.68ZM688.95 302.61L690.72 302.61L689.64 301.75ZM679.04 348.17L678.05 349.57L681.12 346.46L679.51 347.63ZM664.3 358.3L664.3 360.02L662.61 360.25L664.68 360.02ZM668.91 356.59L667.91 358.07L670.98 355.03ZM668.29 354.95L669.37 355.96L669.37 354.95ZM653.55 363.37L655.16 363.37L654.24 362.51ZM659.23 362.12L660.69 360.4L658.16 362.98ZM648.79 371.78L649.17 372.87L649.17 371.15ZM650.09 368.43L650.86 369.28L650.86 367.8ZM648.79 366.71L649.17 367.8L649.17 366.4ZM646.87 378.55L646.48 379.8L649.02 377.3L647.48 377.93ZM649.17 375.75L649.17 377.23L649.86 375.2L648.56 375.2ZM621.22 381.9L622.14 383.61L622.14 381.43ZM645.79 378.55L644.03 378.55L645.79 379.33L645.79 377.3ZM629.67 385.32L631.43 385.32L630.59 384.47ZM623.52 383.61L623.83 384.62L623.83 383.3ZM640.72 383.38L640.72 385.32L641.26 383.61ZM638.96 385.24L637.35 386.41L639.04 386.26L639.04 384.7ZM628.9 385.79L628.9 384.31L628.13 385.32ZM633.28 385.32L633.97 386.26L633.97 384.62ZM590.96 368.43L591.81 369.28L591.81 367.49ZM597.64 375.2L599.49 375.2L598.49 374.11ZM608.16 378.55L608.62 379.95L608.62 378.01ZM598.49 378.55L598.49 379.72L599.64 378.55ZM601.87 378.32L603.56 379.33L603.56 378.08ZM600.18 376.6L600.18 378.32L600.87 376.84ZM614.15 381.9L616.3 381.9L615.38 380.89L613.69 381.9ZM609.7 380.26L611.24 381.66L610.31 379.87ZM690.87 400.5L692.79 400.5L691.33 399.87ZM635.43 385.32L635.66 387.81L636.04 385.32ZM631.43 388.67L632.28 389.45L632.28 387.89ZM626.13 389.06L628.59 391.55L627.75 390.38ZM629.97 390.38L629.21 391.39L631.82 388.75ZM590.27 375.2L591.81 376.45L593.04 375.2L591.81 373.57ZM585.05 378.55L586.35 378.55L585.05 377.23L584.36 378.55ZM579.83 378.55L582.67 378.55L581.67 377.23ZM583.05 376.84L583.36 377.85L583.36 376.53ZM561.4 368.19L561.4 369.44L562.4 368.43ZM577.37 371.78L580.13 371.78L578.29 370.69ZM556.48 378.55L556.48 381.9L558.02 381.9L558.02 378.55ZM573.84 378.55L571.53 381.43L574.91 379.87L574.91 377.85ZM567.39 375.2L568.85 375.2L568.15 374.35ZM493.05 351.52L494.66 351.52L493.89 350.35ZM551.57 375.2L558.02 376.37L561.4 375.2L561.7 373.49L551.26 374.42L551.26 375.51ZM552.95 385.32L554.64 386.8L557.63 382.6L554.64 383.38ZM538.2 425.76L545.58 425.76L541.12 425.45ZM542.89 429.18L544.5 430.82L544.5 429.18ZM544.27 412.32L545.65 412.32L544.5 411.69ZM575.6 457.84L576.6 458.7L576.6 457.61ZM547.88 462.19L547.88 464.21L548.88 462.89ZM551.26 458.23L551.26 459.94L550.88 457.84ZM470.32 433.77L470.32 437.89L472.47 435.94ZM469.17 442.7L470.32 444.33L471.78 442.7L470.32 441.3ZM545.12 439.91L547.88 443.71L548.96 442.7L547.88 441.38ZM543.89 449.38L547.88 450.24L544.5 449.15Z" />
</svg>
