<svg xmlns="http://www.w3.org/2000/svg" version="1.2" baseProfile="tiny" width="800" height="286" viewBox="0 0 800 286" stroke-linecap="round" stroke-linejoin="round">
<g id="FM">
<path d="M 798.34 143.93 798.49 144.1 798.7 144.16 798.91 144.25 799 144.49 798.89 144.89 798.33 145.88 798.13 146.12 797.69 146.21 797.3 146.11 796.92 145.96 796.48 145.88 795.79 145.88 795.32 145.82 794.84 145.66 794.71 145.11 795.09 144.57 796.6 143.26 797.22 142.84 797.85 142.69 798.34 143.03 798.39 143.23 798.33 143.72 798.34 143.93 Z M 647.09 92.62 647.26 92.94 647.54 93.06 647.85 93.01 648.18 92.84 648.61 94.52 648.62 94.84 648.37 94.92 647.67 94.86 647.53 94.94 647.59 95.28 647.88 95.88 647.95 96.27 647.83 96.78 647.53 97.08 647.15 97.22 645.61 97.44 645 97.4 644.67 97.04 643.98 97.27 643.56 96.98 643.25 96.5 642.93 96.16 643.06 95.73 643.11 95.32 643.01 94.94 642.69 94.62 642.78 94.49 642.93 94.16 642.05 94.1 641.82 93.6 642.03 92.51 642.33 92.2 642.95 92.19 643.5 92.04 643.58 91.3 644.24 91.59 644.45 91.74 644.77 91.56 645 91.58 645.23 91.68 645.54 91.74 646.34 91.71 646.64 91.74 646.66 91.81 647.19 92.16 647.29 92.18 647.5 92.46 647.41 92.53 647.09 92.62 Z M 433.01 78.27 434.09 78.01 434.54 78.16 434.98 78.73 434.99 79.22 434.8 79.81 434.47 80.07 434.1 79.59 433.88 79.59 433.61 79.8 433.24 79.78 432.82 79.67 432.36 79.59 432.45 79.48 432.55 79.43 432.79 79.39 433.09 79.25 433.93 79.07 434.1 78.84 433.96 78.52 433.28 78.62 433.01 78.27 Z M 442.21 75.86 442.44 75.7 442.71 75.73 443.06 75.83 443.52 75.86 443.2 76.24 442.66 76.61 442.06 76.89 441.56 76.95 441.54 76.56 441.58 76.23 441.78 75.64 441.92 75.66 442.01 75.7 442.21 75.86 Z M 5.11 7.47 4.76 8.03 4.85 8.49 5.27 8.67 5.96 8.36 5.8 8.73 5.43 9.24 4.99 9.71 4.65 9.92 4.2 9.77 3.96 9.09 3.56 9.24 3.26 9.54 1.51 12.34 1.14 12.78 1 12 1.29 10.89 1.81 9.89 2.35 9.46 2.57 9.23 2.84 8.15 2.99 7.79 3.47 7.52 3.66 7.75 3.76 8.6 3.81 8.28 3.91 7.96 4.05 7.68 4.21 7.47 4.49 7.26 4.87 7.05 5.15 7.05 5.11 7.47 Z M 535.85 285.14 536.04 285.21 536.15 285.32 536 285.45 535.64 285.45 535.54 285.25 535.68 285.16 535.85 285.14 Z M 532.87 283.93 533.09 283.82 533.45 283.89 533.25 284.09 532.88 284.07 532.87 283.93 Z M 535.37 283.73 535.48 283.93 535.34 284.02 535.07 283.99 534.89 283.83 534.9 283.67 535.09 283.62 535.37 283.73 Z M 538.12 194.85 538.04 194.33 538.52 193.99 538.6 194.5 538.12 194.85 Z M 535.25 193.57 535.32 194.06 534.75 194.39 534.67 193.9 535.25 193.57 Z M 499.42 145.69 499.55 145.32 499.98 144.93 500.48 144.7 500.79 144.77 500.7 145.07 500.26 145.36 499.76 145.58 499.42 145.69 Z M 611.03 130.04 610.99 129.96 610.94 129.91 610.92 129.86 611 129.84 611.1 129.88 611.09 129.93 611.05 129.97 611.03 130.04 Z M 360.41 100.38 360.42 100.15 360.45 99.96 360.51 99.79 360.66 99.65 360.73 99.87 360.7 100.05 360.58 100.21 360.41 100.38 Z M 635.77 99.72 635.86 99.4 635.95 99.29 636.17 99.26 636.15 99.45 636.07 99.55 635.77 99.72 Z M 441.58 80.43 441.46 79.23 441.5 78.71 441.76 78.98 441.86 79.34 441.85 79.72 441.74 80.09 441.58 80.43 Z M 356.26 78.66 356.1 78.35 356.31 78.34 356.34 78.4 356.29 78.52 356.26 78.66 Z M 395.28 39.83 395.19 39.49 395.34 39.53 395.36 39.61 395.31 39.71 395.28 39.83 Z M 371.68 39.86 371.58 39.44 371.66 38.9 371.9 38.51 372.28 38.52 372.33 38.8 372.14 39.22 371.87 39.63 371.68 39.86 Z M 386.04 26.88 386.24 26.58 386.34 26.51 386.51 26.56 386.44 26.73 386.33 26.78 386.19 26.81 386.04 26.88 Z M 79.27 1.25 79.51 1.03 79.82 1 79.87 1.12 79.6 1.36 79.31 1.47 79.27 1.25 Z" fill-rule="evenodd"/>
</g>
</svg>
